<svg id="Ebene_1" data-name="Ebene 1" xmlns="http://www.w3.org/2000/svg" viewBox="0 0 140.08 140.28"><defs><style>.cls-1{fill:#fff;}.cls-2{fill:#1d1d1b;}</style></defs><path class="cls-1" d="M140.4,70.79c0,6.74.5,13.2-1.33,19.35-3.23,10.82-10.09,20.8-17.84,28.69-8,8.1-17.54,15.27-28.86,18.68-6.7,2-14.26,3.75-21.57,3.75-28,0-51.41-17-62.47-40.5C4.2,92,1.14,80.48,1.14,70.17c0-9.56,1.32-18.41,4.9-26.69A66,66,0,0,1,26.5,17.67,72,72,0,0,1,70.69,2a73.13,73.13,0,0,1,31.21,7,71,71,0,0,1,19.61,14.15c12.1,12.22,18.89,29.12,18.89,47.56" transform="translate(-1.1 -0.98)"/><path class="cls-2" d="M108,109.91c-.89.12-1.78.27-2.68.34-.5,0-1-.06-1.52-.06a.45.45,0,0,0-.31.25,17.67,17.67,0,0,0-.64,2.23,23.15,23.15,0,0,0-.37,4.63c0,.35.15.45.46.45.8,0,1.6,0,2.41,0a4.77,4.77,0,0,1-2.69.39,4.91,4.91,0,0,0-.67-.08,1.24,1.24,0,0,1-.48-.09c-.64-.43-1.35-.14-2-.2a9.27,9.27,0,0,1-3-.25.3.3,0,0,0-.45.2c-.19.5-.4,1-.56,1.5a2.5,2.5,0,0,0,0,1.62,6,6,0,0,1,.39,1.29,2.85,2.85,0,0,0,1.43,2.06c.9.55,1.87,1,2.8,1.45a.47.47,0,0,0,.16,0,1.24,1.24,0,0,1,1.27.6c0,.09.27.11.41.11.82,0,1.64,0,2.47,0v.19l-1.94.15a18.8,18.8,0,0,0,3,3.93,3.7,3.7,0,0,1,.33.36.92.92,0,0,1,.13.36c-.18.11-.32.3-.59,0a13,13,0,0,1-3-3.87.76.76,0,0,0-.58-.43,2.65,2.65,0,0,1-.67-.34,3.59,3.59,0,0,0-.75-.44,10.46,10.46,0,0,1-4-2,3,3,0,0,1-1-1.66,12.94,12.94,0,0,0-.45-1.5,4.14,4.14,0,0,1,.43-3.4c.15-.29.09-.41-.12-.63a17.77,17.77,0,0,1-1.09-1.43c-.13.75-.25,1.47-.38,2.18a57.45,57.45,0,0,0-.87,7.27c-.11,2.75-.22,5.49-.32,8.24,0,.57,0,1.15,0,1.73a1.85,1.85,0,0,1,0,.53c0,.13-.19.23-.29.35-.11-.1-.25-.18-.3-.3a1.32,1.32,0,0,1,0-.49c.08-2.9.13-5.79.25-8.69a56.29,56.29,0,0,1,1.41-10.42,5.9,5.9,0,0,0,.14-2.1,4,4,0,0,1,2.73-4.29l.33-.13c-1.9-.43-3.74.07-5.52.09a5.34,5.34,0,0,1,.56,1.06,2.46,2.46,0,0,1-.7,2.44,3.92,3.92,0,0,0-.42.64s0,.15.09.19.42.31.59.49a1.74,1.74,0,0,1,.35,2.18c-.18.4-.34.81-.53,1.2a4.55,4.55,0,0,1-1.5,1.67c-.47.35-1,.65-1.45,1a.63.63,0,0,0-.27.43c0,2.92-.08,5.85,0,8.77,0,2,.25,4.08.38,6.12,0,.44,0,.89,0,1.44a3,3,0,0,1-.8-1.77,59.2,59.2,0,0,1-.32-9.78c0-1.46.1-2.91.17-4.37,0-.39-.09-.38-.39-.25-1.18.48-2.37.93-3.55,1.42a1,1,0,0,0-.35.36c-.23.34-.41.71-.66,1a.93.93,0,0,0-.24.77c.24,1.73.38,3.47.66,5.19.33,2,.77,3.95,1.17,5.93.09.46.34.91,0,1.38,0,.06,0,.2,0,.31-.71-.36-.82-1.06-1-1.7a57.72,57.72,0,0,1-1.42-9.43c0-.41-.06-.83-.07-1.24,0-.23,0-.31-.27-.15-.78.53-1.57,1-2.35,1.59a.4.4,0,0,0-.15.3,53.22,53.22,0,0,0,1.86,9.6c.15.48.33,1,.48,1.44s0,.9-.57,1c-1.17.16-2.34.29-3.51.35a19.74,19.74,0,0,1-2.43-.09c-.68,0-.7-.2-.67-.86a15,15,0,0,0-.16-2.21,22.71,22.71,0,0,0-1.5-5.84c-.12-.29-.23-.35-.54-.25a3.53,3.53,0,0,0-1.47.77c-.07.08-.15.25-.11.32a12.24,12.24,0,0,1,1.17,4.05c.16.92.28,1.85.42,2.77a.19.19,0,0,0,0,.08c0,.25,0,.57-.25.61-.11,0-.37-.31-.41-.51-.17-1-.28-2.09-.44-3.13a14,14,0,0,0-.95-3.65,9.74,9.74,0,0,1-2,.83,28.08,28.08,0,0,0-3.75,1.41,14.58,14.58,0,0,1-3.93.67c-.49,0-.47,0-.28.47.4,1,.79,1.93,1.13,2.91.07.21,0,.69-.11.72-.31.09-.43-.22-.53-.48-.4-1.13-.81-2.25-1.24-3.44-.42.33-.83.59-1.17.92a10.18,10.18,0,0,0-2.45,3.42.84.84,0,0,1-.13.25,1.15,1.15,0,0,1-.28.19c0-.12-.12-.24-.1-.35a6.14,6.14,0,0,1,1.26-2.51,8.45,8.45,0,0,1,2.21-2.13c.07,0,.12-.1.24-.19-.26,0-.46-.08-.65-.13s-.11-.09-.17-.14a.91.91,0,0,1,.16-.11.5.5,0,0,1,.21,0,15.3,15.3,0,0,0,4.27-.35,27.63,27.63,0,0,0,3.15-1,13.44,13.44,0,0,1,1.37-.41,7.4,7.4,0,0,0,2.78-1.38l-2.75.44,0-.1c.06,0,.11-.1.17-.11a20.19,20.19,0,0,0,5.94-1.89c1.63-.85,3.31-1.6,4.93-2.46.92-.49,1.78-1.11,2.65-1.69a13.78,13.78,0,0,0,1.35-1.07,3.86,3.86,0,0,0,.52-.67l-.07-.09c-.83.29-1.65.58-2.48.85-.44.14-.9.22-1.35.32l-3,.67c-.08,0-.2.09-.21.14,0,.44-.41.44-.71.47-.46,0-1,.13-1.25-.43,0-.06-.12-.1-.19-.1a8.07,8.07,0,0,0-3.27.3,12.17,12.17,0,0,1-2.43.35,7.48,7.48,0,0,1-1.57,0c.43-.11.86-.23,1.29-.32,1-.19,2-.35,3.06-.54a7.6,7.6,0,0,1,2.85-.21s.18-.08.18-.13c0-2.15-.08-4.3-.13-6.5l-7.41.42,0-.08a11,11,0,0,1,1.26-.3c1-.11,2-.16,2.94-.26,2.3-.23,4.61-.44,6.9-.75,1.09-.15,2.14-.59,3.23-.79s2.38-.35,3.57-.52a2.62,2.62,0,0,0,.79-.2,10.75,10.75,0,0,1,2.85-.72c.8-.14,1.6-.35,2.39-.57a3.41,3.41,0,0,0,.73-.46l-.06-.11-.42,0a.37.37,0,0,1-.41-.45,3.59,3.59,0,0,0-.15-2.29c-.14-.33-.3-.66-.5-1.07l1,0,0-.08a3.22,3.22,0,0,0-.51-.21c-.52-.11-1-.2-1.58-.28a1.3,1.3,0,0,0-.59,0,9.67,9.67,0,0,1-3.07.49c-1.27,0-2.55-.08-3.82,0-1.06.07-2.1.34-3.16.49-1.9.28-3.81.62-5.72.79a38.89,38.89,0,0,1-4.32.06,19.44,19.44,0,0,1-2.83-.25l1.13-.11-1.46-.68,0-.08c.65.16,1.29.31,1.93.5a11.27,11.27,0,0,0,4.25.2c1.88-.16,3.75-.44,5.62-.69,1-.13,1.92-.32,2.88-.46a16,16,0,0,1,2-.18c1.48,0,3,.06,4.45-.06a16.73,16.73,0,0,0,2.81-.7,1.35,1.35,0,0,0,.55-.32c-.45,0-.91.07-1.36.06-1.15,0-1.37-.19-1.55-1.3a3.3,3.3,0,0,1,.08-1.29.86.86,0,0,1,.89-.71c.41,0,.81-.13,1.22-.14a1.47,1.47,0,0,1,1.63,1.56c0,.21,0,.41,0,.73a2.18,2.18,0,0,0-1.08-2.6,8.73,8.73,0,0,0-3.12-.85c-1.72-.16-3.44-.26-5.16-.42-1.41-.13-2.81-.33-4.22-.43a33.06,33.06,0,0,0-6.37-.08c-2,.24-4.06.45-6.07.78a10.27,10.27,0,0,0-5.24,2.51,40.75,40.75,0,0,0-4.06,4.64c-1.27,1.53-2.59,3-3.89,4.52-.81.93-1.58,1.91-2.44,2.79-1.7,1.77-3.42,3.53-5.19,5.23s-3.62,3.29-5.42,4.94c-.36.32-.69.67-1,1a7.36,7.36,0,0,1-.78.6c-.08.05-.23,0-.34,0a2,2,0,0,1,0-.35c0-.08.1-.13.16-.19,2.22-2.17,4.43-4.34,6.67-6.49.56-.54,1.24-1,1.78-1.53,1.08-1.12,2.12-2.3,3.16-3.46a.42.42,0,0,0,0-.35,54.45,54.45,0,0,0-4.62-8A27.7,27.7,0,0,0,38.85,105a5.59,5.59,0,0,1-1.07-1.77A71.72,71.72,0,0,0,31.67,92c-1.91-2.92-3.8-5.84-5.49-8.89-1.29-2.33-2.6-4.65-4-6.9a13.24,13.24,0,0,0-3.28-3.72.7.7,0,0,0-.48-.13,21.28,21.28,0,0,1-4.29.4.54.54,0,0,0-.34.23,6.42,6.42,0,0,0-1.08,3.11,15,15,0,0,0-.14,2,6.19,6.19,0,0,0,.86,2.84c.87,1.77,1.81,3.51,2.65,5.3a80.69,80.69,0,0,1,4.05,9.18c1,3,2,6,2.94,9a1.3,1.3,0,0,0,1.16,1c2.27.32,4.52.69,6.78,1a26.11,26.11,0,0,1,5.19,1.43c1,.37,2,.68,3,1.06A12.72,12.72,0,0,1,44.69,113a.64.64,0,0,1,.1.13.33.33,0,0,1,.07.21c-.37-.3-.75-.59-1.11-.9a17.5,17.5,0,0,0-5.28-3.15,38.47,38.47,0,0,0-7.9-2.22c-1.92-.24-3.84-.58-5.75-.9-.41-.06-.8-.2-1.2-.3a1.36,1.36,0,0,1-1.07-1l-2.25-7A61.32,61.32,0,0,0,17,89.78c-.46-.94-.87-1.9-1.32-2.83-.68-1.41-1.38-2.81-2.07-4.21-.51-1.06-1-2.13-1.51-3.23-.06.09-.14.2-.21.32-.9,1.64-1.78,3.28-2.69,4.91-1,1.82-2,3.63-3.07,5.45a6.94,6.94,0,0,1-.61,1.06,6.17,6.17,0,0,1-1,.77A.91.91,0,0,0,4.42,91c-.07-.08,0-.26,0-.39a1.64,1.64,0,0,0-.1-.38,12.71,12.71,0,0,1-.52-1.28C3.49,88,3.25,87,3.05,86c-.26-1.18-.48-2.37-.68-3.55-.25-1.46-.5-2.92-.68-4.39-.15-1.25-.21-2.52-.3-3.77s-.18-2.77-.25-4.15c0-.55,0-1.1,0-1.65.11-2.51.16-5,.39-7.52.19-2.12.59-4.21.92-6.31.1-.62.23-1.24.38-1.85.08-.31.23-.61.34-.91l.13,0c0,.23,0,.47,0,.71A18.45,18.45,0,0,0,4.2,58a35,35,0,0,0,3,6.94c.41.8.82,1.61,1.24,2.41a17.24,17.24,0,0,0,2.26,3.43,4.93,4.93,0,0,0,2.48,1.35,9.84,9.84,0,0,0,4.15-.07,18.49,18.49,0,0,0,2.74-.65,3.1,3.1,0,0,0,1.55-1.22,21,21,0,0,1,2.17-2.52,3.25,3.25,0,0,0,1.1-3.32,2.79,2.79,0,0,0-.56-1.13c-.56-.79-1-1.65-1.51-2.49-.13-.21-.22-.43-.33-.64l-.11,0c.09.38.16.77.28,1.14.21.66.46,1.31.7,2,.09.25.24.54,0,.71a1.24,1.24,0,0,1-.8.14,1.22,1.22,0,0,1-.87-.87,19.08,19.08,0,0,1-.78-2.54,6.8,6.8,0,0,1,.4-4.08,17.55,17.55,0,0,1,1.52-2.66,2.85,2.85,0,0,1,1.8-1.16,6,6,0,0,0,2.19-1.07c2.17-1.4,4.34-2.83,6.51-4.23a.9.9,0,0,0,.51-.84,19.72,19.72,0,0,1,.24-2,12.28,12.28,0,0,0-.63-5.38,13.64,13.64,0,0,0-.49-1.4c-.48-1.1-1-2.18-1.48-3.28-.13-.28-.24-.58-.37-.87a1.86,1.86,0,0,1,.63-2.13c.73-.78,1.47-1.56,2.18-2.36.26-.28.44-.62.68-.93.08-.1.27-.25.31-.22s.13.29,0,.44c-.81,1-1.56,2.06-2.44,3-1.17,1.25-1.27,1.43-.6,3,.48,1.13,1,2.23,1.53,3.35a12.75,12.75,0,0,1,1.05,3.83,13.32,13.32,0,0,1-.13,4.54c0,.11-.06.21-.08.32s0,.23-.07.42c.76-.49,1.48-1,2.21-1.42l7.09-4.27,6.48-4c.53-.34.55-.4.17-.91-1-1.26-1.93-2.53-3-3.76A20.06,20.06,0,0,0,45,30.23a11.45,11.45,0,0,0-6-2.71c-.54-.08-1.08-.13-1.63-.2.12-.64,0-1-.68-1.12a12.71,12.71,0,0,0-2.14-.33,21.38,21.38,0,0,0-9,1,73.36,73.36,0,0,0-7,2.81,33.6,33.6,0,0,0-7.14,4.39,4.33,4.33,0,0,1-.67.5c.27-.4.52-.82.81-1.21,1.09-1.48,2.14-3,3.3-4.42,1.69-2.06,3.44-4.07,5.2-6.06,1-1.1,2-2.15,3-3.19.54-.55,1.16-1,1.72-1.53.91-.85,1.75-1.77,2.71-2.56s1.94-1.39,2.92-2.07,2.21-1.51,3.33-2.23,2-1.28,3-1.83c1.25-.67,2.55-1.25,3.84-1.85s2.87-1.29,4.32-1.91c.79-.34,1.61-.61,2.42-.91,1.06-.41,2.11-.87,3.19-1.2s2.22-.6,3.34-.84c1.57-.33,3.14-.67,4.72-.93,1.41-.23,2.84-.31,4.25-.55a33.86,33.86,0,0,1,4.72-.17c1.3,0,2.6-.18,3.9-.15,1.79,0,3.59.15,5.37.3,1.42.12,2.84.28,4.24.51,1.87.31,3.73.63,5.56,1.08,1.62.4,3.2,1,4.8,1.48,1.41.44,2.83.85,4.21,1.38a35.4,35.4,0,0,1,5.62,2.53c.52.31,1,.59,1.56.92a1.43,1.43,0,0,1,.31.42c-.47.09-.85.17-1.24.23a2.17,2.17,0,0,1-.44,0c-.57,0-1.14-.09-1.71-.07A9.78,9.78,0,0,1,95.57,9,7.07,7.07,0,0,0,93,8.56c-.73,0-1.46-.06-2.18,0a22.86,22.86,0,0,0-2.85.35c-1.66.33-3.3.74-5,1.09a2.51,2.51,0,0,1-.82,0,2.6,2.6,0,0,0-2.29.86.92.92,0,0,0,.26,1.32,2.07,2.07,0,0,0,1.51.27c.83-.06,1.65-.24,2.48-.27,1.54-.05,3.07-.06,4.61,0a15.32,15.32,0,0,1,2.32.29,5.15,5.15,0,0,1,2.35,1.1,2.64,2.64,0,0,1,.81,3,7.09,7.09,0,0,1-.5,1.25c-.94,1.76-1.9,3.51-2.86,5.26A7.18,7.18,0,0,0,90,27.23a6.59,6.59,0,0,0,.45,1.6,7.25,7.25,0,0,1,.6,2.66,7.34,7.34,0,0,1-.82,3.32C89.62,35.92,89,37,88.39,38.12a10.63,10.63,0,0,0-1.23,4.52c-.15,2-.25,3.91-.52,5.85a5.86,5.86,0,0,1-2.29,4.17A6,6,0,0,0,83.06,54a5.55,5.55,0,0,1-3.46,2.17,10.44,10.44,0,0,0-4,1.94,3.35,3.35,0,0,1-4.41-.31,11.29,11.29,0,0,1-1.85-2.94c-.25-.57-.51-1.12-.77-1.68a1,1,0,0,0-.22-.34,2.43,2.43,0,0,1-.71-1.36A5,5,0,0,0,66.22,49,1.49,1.49,0,0,0,65,48.56c-.41,0-1.06.94-.94,1.31a.23.23,0,0,0,.1.12,2.54,2.54,0,0,1,.56,3,1.07,1.07,0,0,0,.07.89,5.59,5.59,0,0,1,.41,1.86A12.4,12.4,0,0,1,65,57.5a2.46,2.46,0,0,0,0,.81c.33,1.37.62,2.75,1,4.1a12.44,12.44,0,0,0,2,4.13,5.61,5.61,0,0,0,4.31,2.35,31.56,31.56,0,0,0,4.23-.16,4.44,4.44,0,0,0,1.57-.65c1.35-.73,2.69-1.47,4-2.25A18.47,18.47,0,0,0,88.82,59a14.06,14.06,0,0,0,1.76-5.6A20,20,0,0,0,90.51,50a11.79,11.79,0,0,1,.22-2.9,14.28,14.28,0,0,0,0-2.7,5.06,5.06,0,0,1,.61-2.93,11.89,11.89,0,0,1,1-1.24c.53-.63,1.12-1.21,1.59-1.88a3.25,3.25,0,0,1,2.22-1.6c.09,0,.16-.15.23-.22a7.17,7.17,0,0,1,3.66-2.2,4.87,4.87,0,0,1,5.31,2.16,5.23,5.23,0,0,1,.62,3.8.8.8,0,0,0,.13.54,8,8,0,0,1,1.14,2.58c.58,1.92,1.12,3.84,1.66,5.77a4.45,4.45,0,0,0,1.4,2.24A16.92,16.92,0,0,1,114,55.86c0,.07.09.14.16.24a1.12,1.12,0,0,0,.1-.18,3.84,3.84,0,0,1,1.65-2.29,2.54,2.54,0,0,0,1.17-2.12l.09-.9a1.11,1.11,0,0,1,.56-.91c.24-.14.44-.33.68-.46a3.1,3.1,0,0,0,1.38-2.57c.1-.52.08-1.07.22-1.59a3.92,3.92,0,0,1,.59-1.41,4.61,4.61,0,0,0,.85-2.86,19.45,19.45,0,0,1,.69-5c.2-.68.52-1.33.76-2a2.63,2.63,0,0,0,0-1.89,5.78,5.78,0,0,1-.21-2.8,5.32,5.32,0,0,0-1.05-3.83c-.63-.87-1.16-1.8-1.82-2.63a3.6,3.6,0,0,1-.47-1.49c-.06-.23.07-.29.23-.21a10.72,10.72,0,0,1,1.29.7,9.05,9.05,0,0,1,1.1.86c.66.57,1.34,1.13,1.95,1.75a33.82,33.82,0,0,1,2.5,2.73c1.2,1.5,2.38,3,3.44,4.61s2.13,3.43,3.1,5.19c.71,1.31,1.29,2.69,1.88,4.06s1.27,3,1.83,4.45c.45,1.24.8,2.53,1.19,3.8.3,1,.62,1.9.86,2.87.36,1.42.69,2.85,1,4.28.21.94.38,1.88.52,2.83.26,1.69.51,3.39.71,5.09a29.74,29.74,0,0,1,.22,3.12q.07,3,.06,6.08c0,1.23-.07,2.46-.17,3.69-.08.95-.23,1.91-.39,2.85-.1.59-1.11,1-1.72.65a15.39,15.39,0,0,1-3.37-2.34c-2.31-2.07-4.63-4.13-6.87-6.27-1.37-1.31-2.6-2.76-3.89-4.15L122.16,65c-.36.69-.71,1.35-1,2-1.36,2.79-2.69,5.58-4.06,8.36-.35.7-.77,1.36-1.17,2a2.26,2.26,0,0,1-1.33.91,6,6,0,0,1-.89.33c-.55.11-.72.46-.78,1-.26,2.25-.55,4.49-.82,6.74s-.55,4.58-.78,6.87a26.65,26.65,0,0,0-.08,2.68.54.54,0,0,0,.27.36,16.67,16.67,0,0,1,3.89,2.53,14.06,14.06,0,0,1,2.93,3.79c.86,1.64,1.68,3.3,2.48,5,.56,1.16,1,2.37,1.57,3.53a16.65,16.65,0,0,0,2.24,3.73c.24.29.1.44-.1.64s-.36,0-.45-.14a25.26,25.26,0,0,1-1.66-2.59c-1-2.1-2-4.24-3-6.36a27.68,27.68,0,0,0-2.67-4.75,15.73,15.73,0,0,0-3.08-3.18,23.9,23.9,0,0,0-8.76-3.89c-1.11-.3-2.24-.53-3.36-.73a15.63,15.63,0,0,0-1.68-.12A25,25,0,0,0,89.42,95.5l-1.26.5s-.07.13-.07.2c0,1.28,0,2.55,0,3.83a.32.32,0,0,0,.21.23c.5.06,1,.08,1.6.12l-.58.13a3.89,3.89,0,0,0-.56.1,3.47,3.47,0,0,0,1.84.62c1.22,0,2.44-.12,3.66-.16a26.43,26.43,0,0,1,3.33,0c1.91.21,3.8.6,5.72.82a19.76,19.76,0,0,0,6.23-.25,11.17,11.17,0,0,1,1.43-.13,4.21,4.21,0,0,1,.94,0l-.44.13a19.9,19.9,0,0,1-7.12.68c-1.29-.08-2.58-.34-3.86-.5a32.57,32.57,0,0,0-3.79-.43A11.67,11.67,0,0,0,89,103.83l-.19.16-.11.12a2.53,2.53,0,0,1,1.22,2.5,2.33,2.33,0,0,1-1.89,2.14,21.68,21.68,0,0,0,2.79.35c1.5,0,3-.29,4.49-.22,2.16.09,4.31.38,6.47.61,1,.1,2,.28,3,.33s1.94,0,2.9-.06H108a.77.77,0,0,0,0,.15M85.19,82.32h0a1.64,1.64,0,0,0-.19-.4.9.9,0,0,1,.09-1.25l.05-.06c.23-.41.18-.67-.21-.91a3.22,3.22,0,0,0-.76-.39,23.93,23.93,0,0,0-6.77-1A33.28,33.28,0,0,0,70,78.9,14.43,14.43,0,0,0,66.37,80c-.84.44-.92.73-.47,1.56a1.14,1.14,0,0,1,0,1.17c-.22.41-.47.81-.67,1.23a9.37,9.37,0,0,0-1.14,3.54c-.07,1.46,0,2.93,0,4.4.09,2.11.25,4.22.38,6.33.08,1.3.16,2.6.25,3.9,0,.51.08.53.57.47,1.74-.21,3.48-.41,5.22-.64a.32.32,0,0,0,.22-.23c0-.41,0-.82,0-1.23-.1-2.18-.21-4.36-.31-6.54,0-1.07-.06-2.15-.14-3.21a.56.56,0,0,1,.27-.6A13.13,13.13,0,0,1,77.07,88a14.38,14.38,0,0,1,3.65.08,7.49,7.49,0,0,1,3.56,1.35.68.68,0,0,1,.23.39c.07.82.12,1.64.16,2.46.15,3.31.29,6.61.43,9.92,0,.78,0,.78.76.93l.08,0,1.62.38v-1.26c0-3.71-.06-7.42-.13-11.12a20.6,20.6,0,0,0-.94-6.23,9,9,0,0,0-1.3-2.58M33.44,66.23v0c0,.31-.24.33-.45.31a2,2,0,0,1-.63-.17,12.42,12.42,0,0,0-4.19-1,4.75,4.75,0,0,1-2.69-.91,1.78,1.78,0,0,0-.18-.08c0,.14,0,.25,0,.35a3,3,0,0,1-1.07,3.21,8.37,8.37,0,0,0-1.2,1.18c-.54.65-1,1.36-1.52,2a2.72,2.72,0,0,1-1.61,1.14,4.54,4.54,0,0,0-.43.15c.22.19.4.34.57.5a22,22,0,0,1,4.12,5.77,8.23,8.23,0,0,0,2.56,3.09,44.2,44.2,0,0,0,7.82,4.33,28.89,28.89,0,0,0,8.77,2.5,11.82,11.82,0,0,0,1.88-.06.82.82,0,0,0,.79-.77,14.29,14.29,0,0,1,1.51-4.45c1.43-2.55,2.91-5.09,4.4-7.62a5.85,5.85,0,0,1,1.73-2.12c1.56-1,3.15-1.93,4.74-2.88,1-.62,2.1-1.15,3.07-1.83A7.77,7.77,0,0,0,64,66.11a8.26,8.26,0,0,0,.62-4.42c-.07-1.13-.17-2.25-.18-3.37a11.5,11.5,0,0,1,.25-1.83c0-.15,0-.21-.15-.28a7.27,7.27,0,0,1-1.36-.62,1.13,1.13,0,0,1-.48-1.12,12.33,12.33,0,0,1,1-3.87c.12-.25.09-.39-.16-.5-.52-.23-1-.49-1.53-.71-.25-.1-.34-.21-.14-.44s.37-.51.58-.74.24-.43-.09-.6a1.68,1.68,0,0,1-.92-1.38,7.34,7.34,0,0,0-.08-.82.56.56,0,0,0-.2-.35c-.73-.48-1.47-1-2.21-1.42a27.67,27.67,0,0,0-4.83-2.36.55.55,0,0,0-.29,0c-.06.34-.37.58-.19,1a12.54,12.54,0,0,1,1.09,3.64c0,.31,0,.56-.34.67s-.44-.14-.56-.36c-.71-1.32-1.41-2.63-2.1-4-.49-.94-1-1.88-1.42-2.83-.12-.25-.25-.26-.47-.12-.42.28-.86.54-1.3.8L34.37,48.63A1.06,1.06,0,0,0,34,49q-.37.72-.69,1.47a6.12,6.12,0,0,1-2.47,3.08c-.39.23-.8.42-1.2.62l.2.36a.47.47,0,0,1-.37-.12A4.83,4.83,0,0,0,25.9,53a3.67,3.67,0,0,0-3,1.58A4.73,4.73,0,0,0,22.48,59a14.82,14.82,0,0,0,2.07,3.68,4.72,4.72,0,0,0,3.22,2,15.08,15.08,0,0,1,4.79,1.39,3.61,3.61,0,0,0,.88.17m52.64-54c-1.34.12-2.57.2-3.8.35a4.89,4.89,0,0,0-1.74.37,21.17,21.17,0,0,0-5.25,3.71,29.59,29.59,0,0,0-5.07,6.44,34.79,34.79,0,0,0-2.57,5.41A9,9,0,0,0,67.2,33a4.73,4.73,0,0,1,0,1.59,11.24,11.24,0,0,1-1.68,3.95c-1,1.47-2,2.92-2.87,4.41a3.9,3.9,0,0,0-.7,3.31,1.67,1.67,0,0,0,1.58,1.3l.82.08c.26,0,.43.15.41.42s.11.26.3.23a1.62,1.62,0,0,1,1.44.55A6.17,6.17,0,0,1,68,51.68a2.35,2.35,0,0,0,.27.63c.28.47.6.91.87,1.38.59,1.08,1.1,2.21,1.75,3.24a3.12,3.12,0,0,0,4.63.79,12,12,0,0,1,4.1-1.92,5.15,5.15,0,0,0,3.07-1.91,9.86,9.86,0,0,1,1.47-1.49,5,5,0,0,0,2-3.33c.25-2,.42-3.92.58-5.89A12.39,12.39,0,0,1,87.62,39c.62-1.37,1.37-2.68,2.11-4a6.28,6.28,0,0,0,.4-5.9,6.49,6.49,0,0,1-.26-4.3,15.72,15.72,0,0,1,1.83-4c.68-1.16,1.41-2.29,2-3.49a2.8,2.8,0,0,0-1.2-4A6.5,6.5,0,0,0,90,12.65c-1.34-.1-2.68-.26-3.91-.38m7,34.9a5.92,5.92,0,0,1,.34,1,2.84,2.84,0,0,0,2.73,2.36,4.26,4.26,0,0,0,3.28-1.43,40.82,40.82,0,0,0,3.37-4.16,16.45,16.45,0,0,0,2.07-2.9,5.71,5.71,0,0,0,.73-3.81,4.32,4.32,0,0,0-5.43-3.47,6.25,6.25,0,0,0-2.74,1.44c-.65.53-1.26,1.12-2,1.76.07-.23.12-.38.18-.59a2.38,2.38,0,0,0-1.06.91,24.1,24.1,0,0,1-1.93,2.33,4.69,4.69,0,0,0-1.31,4.07,7.19,7.19,0,0,1-.12,3.06,3.68,3.68,0,0,0-.1,1.33c0,.83.13,1.67.16,2.5a16.28,16.28,0,0,1-2,8,15.71,15.71,0,0,1-5.49,5.84c-1.15.76-2.38,1.41-3.58,2.09-.73.42-1.49.79-2.32,1.23h.64a12.39,12.39,0,0,1,5.41,1,8.48,8.48,0,0,1,3.53,2.94c.32.5.74,1,1.11,1.42l.32.39-.1.1c-.92-.38-1.24-1.37-2-2.11l-1,2.58a1.29,1.29,0,0,0,.45,1.75.13.13,0,0,1,0,.07c.12.22.22.18.38,0a2.13,2.13,0,0,1,1.91-.77c.28,0,.29-.07.31-.27.14-1.44.28-2.89.44-4.34a8.11,8.11,0,0,1,1.38-4.12c.33-.43.66-.87,1-1.3a1.45,1.45,0,0,0,.42-1.31,1.63,1.63,0,0,1,0-.54c.08-.64.38-.93,1-.92,1.61,0,3.21,0,4.81.11s3,.32,4.46.46,3.19.27,4.79.4a.76.76,0,0,0,.48-.15q2.4-1.77,4.78-3.57c.63-.48,1.26-1,1.87-1.47a.45.45,0,0,0,.13-.38,12.52,12.52,0,0,0-3.92-6.29,6.11,6.11,0,0,1-2-2.72c-.68-2.37-1.39-4.72-2.11-7.08-.15-.5-.39-1-.63-1.55a10.76,10.76,0,0,1-1.86,3.23c-.36.43-.7.88-1,1.32-1,1.22-1.92,2.46-2.91,3.67A5,5,0,0,1,97,51a3.27,3.27,0,0,1-3.18-.9,2.55,2.55,0,0,1-.79-2.93M25.86,81.47c.07.15.09.22.12.27l5.54,9c.94,1.5,1.95,3,2.83,4.49a66.08,66.08,0,0,1,4.14,8.45,4.85,4.85,0,0,0,.92,1.34c.58.66,1.3,1.21,1.81,1.91.94,1.28,1.78,2.64,2.65,4,.33.5.63,1,1,1.49s.82,1,1.15,1.59c.55.94,1,1.91,1.59,2.92a3.5,3.5,0,0,1,.24-.3c1.54-1.76,3.08-3.53,4.64-5.29,1.2-1.35,2.41-2.71,3.64-4,.77-.83,1.59-1.62,2.42-2.4.5-.47.53-.44.29-1.1a29.36,29.36,0,0,0-3.09-5.87,33.88,33.88,0,0,0-4-4.57A27.08,27.08,0,0,1,48.16,89c-.49-.81-.92-1.64-1.4-2.52a3.91,3.91,0,0,0-.17,1.09c.11.68,0,1-.64,1.26a5.34,5.34,0,0,1-3.28.18A47.3,47.3,0,0,1,38,87.8a38.32,38.32,0,0,1-12.12-6.33M88.58,95.55h.08a.77.77,0,0,0,.07-.16l.33-4.19c.09-1.21.17-2.43.26-3.65.13-1.68.27-3.36.4-5,.09-1.19.17-2.38.26-3.57s.21-2.52.31-3.77.16-2.36.28-3.53a1.41,1.41,0,0,1,.27-.82,5.42,5.42,0,0,1,1.39-1,7.15,7.15,0,0,1,4.45-.45,10.92,10.92,0,0,1,6,3,.47.47,0,0,1,.16.29,8.85,8.85,0,0,1,0,1c-.12,1.46-.26,2.92-.39,4.38s-.23,2.68-.35,4l-.39,4.22c-.12,1.32-.25,2.64-.38,4-.09,1-.19,1.91-.27,2.87,0,.15-.06.3.21.33.76.09,1.52.2,2.27.36a29.76,29.76,0,0,1,6.63,2.11c.4.18.41.16.44-.28a1,1,0,0,1,0-.17c.11-2,.16-4,.34-6,.25-2.66.63-5.31.91-8s.59-5.51.77-8.28a8.72,8.72,0,0,0-1.24-5.47.78.78,0,0,0-.43-.31,13.85,13.85,0,0,0-1.42-.2c-1.17-.12-2.35-.23-3.52-.36s-2.34-.26-3.51-.37c-1.39-.14-2.78-.26-4.17-.35-1.85-.12-3.7-.21-5.55-.3a.53.53,0,0,0-.38.2c-.29.39-.54.8-.81,1.19a5.15,5.15,0,0,0-1.12,2.08c-.25,1.6-.5,3.2-.65,4.81-.23,2.62-.38,5.26-.54,7.88-.09,1.44-.14,2.89-.21,4.33-.16,2.93-.33,5.86-.48,8.79a2.36,2.36,0,0,0,0,.38M92.8,77c-.09.39-.16.75-.24,1.1l-.13.12L92,77.61a4.88,4.88,0,0,1-.26.5s-.21,0-.23,0c-.13-.3-.23-.6-.34-.9-.06.52-.14,1-.19,1.54-.1,1.11-.18,2.22-.27,3.32l-.39,4.67c-.12,1.39-.23,2.78-.35,4.18s-.2,2.56-.32,3.85c0,.29,0,.33.33.24a24,24,0,0,1,9.34-1.66c.62,0,.61,0,.65-.61.08-1.29.17-2.57.27-3.86.12-1.64.26-3.28.39-4.92l.27-3.23c.13-1.57.27-3.14.39-4.71.07-.87.06-1.76.2-2.62a.86.86,0,0,0-.41-.95,10.14,10.14,0,0,0-7.09-2,3.76,3.76,0,0,0-2.25.9.76.76,0,0,0-.18.43c-.06.47-.09,1-.12,1.43-.08,1-.16,2.09-.25,3.21l.28-.19c.08.43.16.85.23,1.27a.81.81,0,0,0,.26-.39c0-.09.08-.18.13-.27.07.08.15.15.21.23a2.39,2.39,0,0,1,.12.22c0-.26,0-.51.06-.75a2.06,2.06,0,0,1,.21-.48c.07.16.13.32.19.48a.1.1,0,0,0,.05,0c.31-.52.69-.69,1.06-.45a.45.45,0,0,1,.19.28c0,.07-.11.16-.19.22s-.27.13-.38.23a1.16,1.16,0,0,0-.2.32,3.12,3.12,0,0,0,.42.18c.07,0,.16,0,.29-.08-.55.6-1,.5-1.29-.29M74.31,96v-.43c0-.4,0-.8,0-1.19,0-.08.12-.16.18-.24s.2.14.2.21a17,17,0,0,1,0,1.89c0,.33-.23.37-.49.16s-.25-.17-.36-.27-.36-.28-.37.13a1.74,1.74,0,0,1-.16.55c-.07.17-.19.21-.29,0l-.69-1.33c0-.06-.1-.16-.12-.15a4.18,4.18,0,0,0-.8.37c-.08.06-.06.29,0,.44,0,.4,0,.8.08,1.19.1,1.4.22,2.79.29,4.19,0,.32.08.43.44.45,2,.12,4.07.27,6.11.42l5.46.41c.23,0,.32,0,.3-.29,0-.45-.06-.9-.08-1.35q-.16-3.14-.32-6.26c-.07-1.51-.13-3-.17-4.53a.52.52,0,0,0-.37-.55,9.49,9.49,0,0,0-3.58-.78,23.7,23.7,0,0,0-3.37.16,10.88,10.88,0,0,0-4.58,1.57.61.61,0,0,0-.32.6c0,1.11.06,2.22.09,3.34v.65c.26-.18.48-.3.66-.45s.39-.27.58.13l.55,1.09c.49-.69.49-.69,1.11-.15m34-31.64c.88.12,1.75.22,2.61.38a.55.55,0,0,0,.62-.23,53.77,53.77,0,0,0,4.4-6.4c.06-.11.19-.18.29-.27a1.08,1.08,0,0,1,0,.41c-.53,1-1,1.94-1.62,2.85-.82,1.22-1.74,2.37-2.61,3.55-.07.1-.19.28-.16.34.27.46.07.89,0,1.32A1.29,1.29,0,0,0,112,67.5a6.4,6.4,0,0,1,1.43,3.87c0,1.91-.1,3.81-.17,5.72,0,.38-.08.75-.12,1.11a3.66,3.66,0,0,0,3-2.25c.76-1.78,1.64-3.5,2.5-5.24,1.1-2.23,2.24-4.45,3.35-6.69a.51.51,0,0,0,0-.45c-.38-.49-.8-.94-1.18-1.42-1.11-1.4-2.2-2.81-3.31-4.21-.17-.2-.38-.47-.61-.52-.7-.15-1.43-.21-2.2-.32.07.3.12.53.18.75.39,1.31.55,1.14-.8,2.18-1.9,1.46-3.84,2.88-5.79,4.34M90,114.42c-1,.2-2,.38-2.91.58-.67.14-1.32.31-2,.48s-1.36.41-2.06.53a29.22,29.22,0,0,0-4,.77c-1.09.34-2.22.56-3.34.79-.28.05-.35.11-.34.4q.14,3,.22,6.08c0,.28.15.24.31.2.67-.14,1.34-.27,2-.45a49.09,49.09,0,0,0,8.42-2.93c.95-.47,1.91-.91,2.82-1.45.68-.4,1.44-.78,1.49-1.78,0-.24.3-.48.49-.7a1.41,1.41,0,0,0,0-2.21c-.38-.41-.61-.49-1-.12a1.55,1.55,0,0,1-.33.24c-.25.13-.17.24,0,.38a3.92,3.92,0,0,1,.9,1.93l-.11,0c-.43-.68-.6-1.54-1.31-2,0,0,0-.17.1-.22s.42-.28.69-.45m-41.29-32a11.83,11.83,0,0,0-1.5,2.94,1.2,1.2,0,0,0,0,1.09A19.14,19.14,0,0,0,51,91.72c1.39,1.44,2.8,2.88,4,4.45A25.07,25.07,0,0,1,59.22,104c.06.18.12.27.34.17.54-.25,1.1-.48,1.64-.74a.35.35,0,0,0,.15-.32c-.2-.52-.44-1-.65-1.54a28.39,28.39,0,0,0-5-8c-1.09-1.27-2.21-2.52-3.25-3.83a20.35,20.35,0,0,1-3.7-7.34m51.78,35a10.1,10.1,0,0,1,1.16-7.52l-1.29-.18a3.84,3.84,0,0,0-2,0,21.25,21.25,0,0,0-2.4,1,3,3,0,0,0-1.52,3.17,7.41,7.41,0,0,0,.56,1.62,3.1,3.1,0,0,0,3.13,1.88h2.38M26.08,52.5a1.49,1.49,0,0,0,1.44-.17,7.5,7.5,0,0,1,1-.64L49.62,39.05c.55-.33.64-.32.92.23q1.66,3.21,3.31,6.42a3.11,3.11,0,0,0,.22.4.59.59,0,0,0,.18.13c0-.07.09-.14.08-.21a5.19,5.19,0,0,0-.13-.88,51.91,51.91,0,0,0-3-7.93c-.1-.21-.18-.2-.36-.08-.87.57-1.74,1.14-2.63,1.68-3,1.8-6,3.57-8.91,5.38s-5.62,3.49-8.41,5.25c-1.59,1-3.17,2-4.81,3.06m63,42.79h.12c0-.18.07-.35.09-.53.07-.73.13-1.45.19-2.17l.39-4.8c.09-1.06.17-2.13.27-3.19l.39-4.14.33-3.76c.11-1.36.25-2.73.32-4.09a2,2,0,0,1,1.66-2.2h0a7.44,7.44,0,0,1,3.57-.17,10.86,10.86,0,0,1,4.83,2,1.2,1.2,0,0,1,.5,1.25c-.15,1.43-.25,2.87-.37,4.3l-.27,3.61-.39,4.71c-.09,1.19-.17,2.38-.27,3.57s-.2,2.21-.3,3.31c0,.21,0,.36.28.37s.2-.2.21-.33c.1-1.09.17-2.19.27-3.28.15-1.76.32-3.52.48-5.29.12-1.27.23-2.54.35-3.8l.39-4.18c.12-1.21.26-2.43.38-3.64a.47.47,0,0,0-.08-.31,7.08,7.08,0,0,0-.7-.64A10.66,10.66,0,0,0,94,69.51a4.19,4.19,0,0,0-2.93,1.38.8.8,0,0,0-.19.43c0,.55-.07,1.09-.11,1.64-.08,1.26-.16,2.52-.26,3.78-.12,1.68-.26,3.36-.4,5l-.18,2.54-.39,4.84c-.1,1.27-.21,2.54-.3,3.81-.06.78-.11,1.55-.16,2.32M92.67,65.7h.09c2.37.11,4.74.18,7.11.34,1.87.11,3.74.31,5.6.5s3.59.41,5.38.61a.23.23,0,0,0,.18-.11c.09-.78.07-.81-.71-1l-.08,0c-1.17-.15-2.33-.32-3.5-.45s-2.1-.19-3.15-.28l-3.6-.3c-1-.08-2.11-.16-3.16-.22-1.26-.08-2.52-.14-3.78-.19a.3.3,0,0,0-.24.18c-.07.27-.09.56-.14.88M71,92.5h0c0-.41.06-.82.06-1.24a.67.67,0,0,1,.29-.58,10.29,10.29,0,0,1,4.83-1.79,15,15,0,0,1,4.18-.08,8,8,0,0,1,3.13.91.79.79,0,0,1,.36.53c.13,2.16.24,4.33.34,6.49.08,1.54.13,3.08.19,4.61,0,.43,0,.85.08,1.28,0,.1.15.19.24.29,0-.09.16-.19.15-.28,0-.67,0-1.34-.07-2-.06-1.36-.11-2.72-.18-4.08-.1-1.92-.23-3.83-.32-5.75-.06-1.31-.11-1.42-1.34-1.9l-.08,0A13.61,13.61,0,0,0,75,88.59a11.86,11.86,0,0,0-4.17,1.74c-.12.08-.27.24-.26.36,0,.78.1,1.56.14,2.34.14,2.89.27,5.78.41,8.68,0,.09.15.19.22.28.06-.11.18-.22.18-.32,0-1-.12-2-.18-3-.11-2.06-.22-4.11-.34-6.17M94.64,63.55v.09H93.12c-.32,0-.36.28-.37.5,0,.07.21.23.33.23,1.65.1,3.31.18,5,.27,1,0,1.94.1,2.91.18,1.47.12,3,.24,4.42.4,1.78.19,3.56.39,5.33.63.4.06.45-.12.55-.4s-.21-.32-.35-.35a14.88,14.88,0,0,0-1.49-.23c-1.46-.16-2.91-.34-4.37-.48q-2.92-.28-5.85-.52c-1.52-.13-3-.21-4.56-.32m-7.46,21a1.41,1.41,0,0,1,.18-.14c.38-.19.35-.39.11-.74A7.38,7.38,0,0,1,86.17,78c.06-.34.08-.59-.23-.81a3.2,3.2,0,0,1-.5-.54c-.54-.72-1.07-1.46-1.61-2.18a1.64,1.64,0,0,0-.24-.21,1,1,0,0,0-.14.23c-.22.83-.44,1.67-.64,2.5a.76.76,0,0,0,.29.84,2.62,2.62,0,0,1,.34.54.85.85,0,0,0,.28.31c.42.17.87.27,1.27.47a1.2,1.2,0,0,1,.68,1.75c-.06.16-.17.31-.23.48a.31.31,0,0,0,0,.25l1.74,2.9m1.27-.47c0-.19.06-.24.07-.29.12-2.37.25-4.74.36-7.11,0-.09-.14-.24-.22-.25-.81-.09-2,.58-2,1.5a16.82,16.82,0,0,0,0,2.46,7.28,7.28,0,0,0,1.76,3.69m12.2,31.13c0,.36.06.85.13,1.34.13.88.44,1.18,1.14,1.19.26,0,.34-.1.33-.34,0-.78,0-1.56,0-2.33a14.06,14.06,0,0,1,.93-4.84s0-.2-.09-.22c-.82-.28-1.14-.13-1.51.64,0,0,0,0,0,0a11.34,11.34,0,0,0-.93,4.52m-27,5.56h.08c0,.56,0,1.12,0,1.69s.06,1.12.09,1.68c0,.82.25,1,1.06.81l.08,0c.25,0,.32-.16.33-.37,0-.58.1-1.17.08-1.76-.06-1.51-.15-3-.24-4.51,0-.83,0-.83-.89-.8H74c-.31,0-.39.16-.39.44,0,1,0,1.89,0,2.84M33.44,49.34l-.13-.1-5.83,3.49,1.52.88a.54.54,0,0,0,.33.06A3.92,3.92,0,0,0,32,51.92a23.7,23.7,0,0,0,1.4-2.58M87.76,107.9a1.28,1.28,0,0,0,1.46-.76,2.12,2.12,0,0,0,0-1.51,1,1,0,0,0-1.08-.74c-.45,0-.9.11-1.34.16s-.7.25-.71.62a9.58,9.58,0,0,0,.12,1.77c0,.12.24.27.39.31a11.89,11.89,0,0,0,1.18.15m-24-53.76a.75.75,0,0,1,.07-.18,6.12,6.12,0,0,0,.77-2.32,1.25,1.25,0,0,0-.44-1.09s-.23,0-.25.06a10.79,10.79,0,0,0-.9,4,1.26,1.26,0,0,0,.4.81,4.77,4.77,0,0,0,1.06.6s.25-.09.25-.13a8,8,0,0,0-.12-1.47c-.14-.61-.22-.61-.73-.27h-.11M21.55,57l.06,0-.1.3a7.85,7.85,0,0,0,.38,5.42,2.57,2.57,0,0,0,.51.88c.14.14.45.13.67.19a3,3,0,0,0-.06-.6c-.29-.95-.61-1.89-.88-2.84-.08-.3,0-.65-.06-1-.15-.79-.34-1.57-.52-2.35m67.86,52.86a4.15,4.15,0,0,1,.48,3.37,1.68,1.68,0,0,0,1.69-1.76c-.15-1.18-.39-1.62-2.17-1.61m-1.29-9.22c0,1,0,2,0,3,0,.33.15.27.36.12.68-.5,1.38-1,2.08-1.47l.52-.35a4,4,0,0,1-3-1.25m0-8.92h.11c0-.67,0-1.34,0-2,.08-1.61.18-3.21.26-4.81a.43.43,0,0,0-.17-.31c-.35-.28-.53.1-.76.23a.39.39,0,0,0-.21.49c.23,1.17.45,2.33.59,3.51.12,1,.13,1.94.18,2.91M52.73,39.83l.61,1.61a1.12,1.12,0,0,0-.61-1.61" transform="translate(-1.1 -0.98)"/><path class="cls-2" d="M33.44,66.23A2.34,2.34,0,0,1,35,63.1a2.07,2.07,0,0,1,2.25.62,2.17,2.17,0,0,1,.43,2.34,1.25,1.25,0,0,1-.22.43.76.76,0,0,0-.1,1A15.84,15.84,0,0,1,38.91,73a12.48,12.48,0,0,1,0,4.09c-.24,1.43-1.15,1.58-2.37,1.48-.64-.06-.75-.29-.8-.93-.13-1.44-.28-2.87-.43-4.3a2.1,2.1,0,0,0-.1-.37c-.18,1-.33,2-.54,2.92a17.3,17.3,0,0,1-.52,1.69.87.87,0,0,1-1,.62,4.91,4.91,0,0,1-.93-.17,1,1,0,0,1-.8-1,16.64,16.64,0,0,1,.95-7,8.72,8.72,0,0,1,1.54-2.65c.15-.16.22-.28,0-.48a3.31,3.31,0,0,1-.47-.72v0m5.1,8.67c0-.44-.12-1.13-.21-1.82A19.59,19.59,0,0,0,37,67.76c-.14-.32-.24-.63-.67-.32a.88.88,0,0,1-.36.1c-.2,0-.29.12-.3.35,0,.76-.15,1.53-.13,2.29.05,1.79.14,3.57.25,5.35,0,.71.16,1.41.24,2.12,0,.29.12.55.48.55s.65,0,1,0a.89.89,0,0,0,.93-.94c.05-.69.08-1.37.13-2.32m-6.65.54c0,.54,0,1.07,0,1.61a.53.53,0,0,0,.11.34,1.32,1.32,0,0,0,1.27.4c.21,0,.45-.46.51-.74.42-1.86.79-3.73,1.17-5.6.06-.33.12-.67.16-1,.11-.87.2-1.74.29-2.61,0-.08,0-.21-.06-.23a9.21,9.21,0,0,0-.9-.25s-.14.06-.18.12A11.8,11.8,0,0,0,32.4,71.3a14.46,14.46,0,0,0-.51,4.14m1.74-10.18a1.93,1.93,0,0,0,3.85,0,1.92,1.92,0,0,0-1.9-1.92,1.86,1.86,0,0,0-1.95,1.88" transform="translate(-1.1 -0.98)"/><path class="cls-2" d="M28.87,57.71a15.3,15.3,0,0,0-1-1.39A1.71,1.71,0,0,0,26,55.8a1.64,1.64,0,0,0-1.23,1.47,7.81,7.81,0,0,0,.1,1.44,2.87,2.87,0,0,0,.05.31l-.13,0c-.11-.31-.24-.61-.32-.92a2.25,2.25,0,0,1,2.09-2.85,2.16,2.16,0,0,1,1.73.81c.31.36.57.77.85,1.15a1.84,1.84,0,0,0,1.51,1A2.74,2.74,0,0,1,33,60.13a3.68,3.68,0,0,1,0,2.25,8.55,8.55,0,0,0,0,1.35,1.27,1.27,0,0,1-.48-1.4c.07-.3.15-.59.21-.88a2.58,2.58,0,0,0-1.38-2.61.37.37,0,0,0-.32.14,1,1,0,0,0,1.16,1.42,1,1,0,0,1-1.11.07c-.47-.34-.54-.93-.22-1.8l0,0a2.08,2.08,0,0,1-2-.95Z" transform="translate(-1.1 -0.98)"/><path class="cls-2" d="M58,69.29c-.24.09-.49.18-.74.25-1.21.36-2.42.78-3.66,1a13,13,0,0,1-2.93.22,28.28,28.28,0,0,1-4-.32A20.56,20.56,0,0,1,41,69.08a2.07,2.07,0,0,1-.25-.19,1.08,1.08,0,0,1,.34,0c.8.22,1.59.52,2.4.68a33.5,33.5,0,0,0,9.09.78,24.39,24.39,0,0,0,3-.59L58,69.22l0,.07" transform="translate(-1.1 -0.98)"/><path class="cls-2" d="M48.86,41.83a3.17,3.17,0,0,1,.62.28A4.94,4.94,0,0,1,51,43.67c.07.13.27.18.37.25-.16.54-.35,1.13-.52,1.72,0,0,0,.16.11.19a7,7,0,0,1,3.3,3.25,7.45,7.45,0,0,1,.3.91l-.11.06c-.15-.26-.32-.51-.45-.78a7,7,0,0,0-2.54-2.85,4.46,4.46,0,0,0-.73-.35c-.27-.1-.37-.22-.23-.51a5.31,5.31,0,0,0,.31-.84c.07-.24,0-.31-.27-.26a4.69,4.69,0,0,1-2.87,0,2.19,2.19,0,0,1-.29-.17,1,1,0,0,1,.36-.08A7.39,7.39,0,0,0,50.43,44c.43-.07.44-.11.19-.48a4.12,4.12,0,0,0-1.68-1.47.57.57,0,0,1-.13-.08l0-.15" transform="translate(-1.1 -0.98)"/><path class="cls-2" d="M32.17,63.75c-.26-.08-.52-.18-.79-.24-.53-.1-1.06-.21-1.6-.27s-.8,0-1.19,0a2.46,2.46,0,0,1-1.72-1.1A11.87,11.87,0,0,1,25.51,60a3.62,3.62,0,0,1-.1-3.1.83.83,0,0,1,.11-.15c.05,0,.09,0,.08.05-.58,2,.28,3.57,1.48,5.06a2.9,2.9,0,0,0,2.57,1.06,2.86,2.86,0,0,1,2.52.86" transform="translate(-1.1 -0.98)"/><path class="cls-2" d="M28.86,57.7a3.12,3.12,0,0,1-.34.45.83.83,0,0,0-.24,1.11,15.16,15.16,0,0,0,1.39,1.9,1.28,1.28,0,0,0,.82.26,2,2,0,0,1,1.41.33,16.06,16.06,0,0,1-1.71,0,1.18,1.18,0,0,1-.74-.36,12.49,12.49,0,0,1-1.46-2,1.14,1.14,0,0,1,.88-1.64h0" transform="translate(-1.1 -0.98)"/><path class="cls-2" d="M61.69,47.94l-.51.37-1.45,1a2.1,2.1,0,0,1-.26.13c0-.11,0-.26.06-.33a3.09,3.09,0,0,1,2.16-1.16" transform="translate(-1.1 -0.98)"/><path class="cls-2" d="M70.07,45.88c-.87-2.1,0-3.88,1.07-5.59.28-.44.58-.87.88-1.29.13-.19.17-.31-.09-.43a1,1,0,0,1-.35-.38c-.14-.21-.22-.47-.54-.48a.27.27,0,0,1-.17-.16.25.25,0,0,1,.15-.17c.28,0,.2-.22.23-.38.07-.46.15-.91.23-1.36,0,0,.06-.08.16-.21,0,.5-.06.89-.07,1.27,0,.58,0,.6.56.49l3.4-.7a6.81,6.81,0,0,1-3.81,1.23c.18.27.3.5.45.69s.14.51,0,.78c-.53.93-1.06,1.87-1.57,2.82a6.42,6.42,0,0,0-.51,3.29v.58" transform="translate(-1.1 -0.98)"/><path class="cls-2" d="M71.58,30.42a2.48,2.48,0,0,1,1.68.83.4.4,0,0,1,.1.29c0,.05-.15.08-.24.11a.44.44,0,0,1-.16,0,2.12,2.12,0,0,0-1.69.68.8.8,0,0,1-1,.2,1,1,0,0,1-.32-1.07c.2-.71.68-1,1.67-1.06m1.51,1L72.6,31a1.9,1.9,0,0,0-2-.05,1,1,0,0,0-.34,1.15c.22.32.46.29,1-.12a2.72,2.72,0,0,1,1.87-.61" transform="translate(-1.1 -0.98)"/><path class="cls-2" d="M63.94,47.15c.16-.33.53-.28.84-.31s.71,0,1.06,0a7.14,7.14,0,0,0,.93-.07c.58-.08.72-.53.81-1,.38.9-.06,1.25-1,1.39a5.08,5.08,0,0,1-.78,0H63.94" transform="translate(-1.1 -0.98)"/><path class="cls-2" d="M96.76,44.42a1.38,1.38,0,0,0,1.63-1.34.69.69,0,0,1,0,1,1.82,1.82,0,0,1-1.7.6.53.53,0,0,0-.46.13A3.94,3.94,0,0,0,95.41,46c-.2.61.23,1.16,1,1.54a.87.87,0,0,1,.28.19,1.88,1.88,0,0,1-1.58-.87,1.38,1.38,0,0,1,.23-1.61c.55-.57,1.14-1.1,1.71-1.66a2.17,2.17,0,0,0,.54-2.75,1.56,1.56,0,0,1,.72-2.31A9.15,9.15,0,0,1,101,37.38a2.4,2.4,0,0,1,2.64,1,3.28,3.28,0,0,1,.17.58l-.11.05a2.43,2.43,0,0,1-.2-.28,2,2,0,0,0-2.56-1A15.62,15.62,0,0,0,98.42,39a1.07,1.07,0,0,0-.57,1.55A2.81,2.81,0,0,1,97,44.23l-.22.19" transform="translate(-1.1 -0.98)"/><path class="cls-2" d="M99.23,39.73a2.35,2.35,0,0,1,1.94,2.42,4.85,4.85,0,0,1-.12,1.14,2.79,2.79,0,0,1-2.41,2.05,7.24,7.24,0,0,0-1.19.4c-.17.07-.26.3-.39.45l-.15.17c0-.08-.11-.2-.08-.24a3.16,3.16,0,0,1,.65-.71,4.34,4.34,0,0,1,.92-.32c.4-.14.81-.25,1.19-.42a2.14,2.14,0,0,0,1.24-2,2.5,2.5,0,0,0-1.07-2.47,5.25,5.25,0,0,1-.53-.49" transform="translate(-1.1 -0.98)"/><path class="cls-2" d="M101.31,38.54c1.2.29,1.82,2.55,1.07,3.52.09-1.3.12-2.59-1.07-3.52" transform="translate(-1.1 -0.98)"/><path class="cls-2" d="M74.22,81.88a24.66,24.66,0,0,1-6.11-.6A3.66,3.66,0,0,1,67,80.77c-.38-.26-.35-.53.07-.69a19,19,0,0,1,2.83-.9,31.42,31.42,0,0,1,7.18-.58,23.93,23.93,0,0,1,6.84.89,3.58,3.58,0,0,1,.71.4c-.21.21-.37.51-.62.6a17.05,17.05,0,0,1-2.61.79,38.07,38.07,0,0,1-7.15.6m-.9-.25a39.24,39.24,0,0,0,8.47-.69A16.77,16.77,0,0,0,84,80.2c.12,0,.21-.2.31-.3a2.91,2.91,0,0,0-.35-.18,23.55,23.55,0,0,0-6.47-.89,32.64,32.64,0,0,0-6.84.42,33.82,33.82,0,0,0-3.37,1c-.12,0-.22.16-.34.25.12.1.21.24.34.28.65.2,1.3.39,2,.56a1.63,1.63,0,0,0,.58,0c1-.15,2.07-.34,3.11-.44.49,0,.64.32.36.8m-3-.3v.12c.75,0,1.5.13,2.24.15a1.28,1.28,0,0,0,.55-.21c.06,0,.08-.11.12-.16s-.14-.1-.2-.1l-2.71.2" transform="translate(-1.1 -0.98)"/><path class="cls-2" d="M74.06,82.58a19.87,19.87,0,0,1-4.86-.45c-.83-.19-1.66-.42-2.47-.67A2.76,2.76,0,0,1,66,81c-.06,0-.06-.17-.09-.25a.57.57,0,0,1,.22.07,6.34,6.34,0,0,0,3.12,1.1c.64.09,1.27.19,1.91.26a7.27,7.27,0,0,0,1.14.07c2.57-.08,5.14-.12,7.7-.28a9.47,9.47,0,0,0,3.51-.74,8.45,8.45,0,0,0,1.14-.77l.33-.19c0,.15,0,.33-.14.42a3.82,3.82,0,0,1-1.92,1,37.54,37.54,0,0,1-3.91.66c-1.64.15-3.29.16-4.94.23" transform="translate(-1.1 -0.98)"/><path class="cls-2" d="M85.19,82.32a7.7,7.7,0,0,1-1.45.92,17.62,17.62,0,0,1-5,1.1c-1.85.13-3.72.22-5.58.23a25,25,0,0,1-3.22-.29,17.15,17.15,0,0,1-2.26-.36,9.39,9.39,0,0,1-1.53-.57c-.07,0-.11-.15-.16-.23a1,1,0,0,1,.25,0,19.71,19.71,0,0,0,2.34.72,27.43,27.43,0,0,0,5.72.44c1.21,0,2.42,0,3.62-.11a26.56,26.56,0,0,0,2.95-.44A26.19,26.19,0,0,0,83.62,83a9,9,0,0,0,1.22-.65,1,1,0,0,1,.36,0h0" transform="translate(-1.1 -0.98)"/><path class="cls-2" d="M93.43,82.75c.31-.9.69-1.13,1.49-1a1.16,1.16,0,0,0,1.27-.87s0-.11,0-.17c-.11-.48-.22-.95-.31-1.43,0-.09.09-.2.14-.31a1,1,0,0,1,.17.27c.08.42.14.84.22,1.29l.24-.3a2.16,2.16,0,0,1,1.64-1,.69.69,0,0,1,.78.38c.17.32.5.33.65,0s.29-.76.46-1.2a.79.79,0,0,1-1-.69c-.11.2-.19.36-.29.53-.27-.38-.08-.71,0-1.06a1.47,1.47,0,0,0,0-.42c-.14.05-.32.06-.4.15a4.29,4.29,0,0,0-.31.55,2,2,0,0,1-.31.34,1.34,1.34,0,0,1-.11-.46A3.93,3.93,0,0,1,98,76.6a1.31,1.31,0,0,1,.24-.34c.07.12.13.24.21.36.72-.18,1,0,.86.79a5.74,5.74,0,0,1,.45-.41.85.85,0,0,1,1.06.15.27.27,0,0,1,0,.2c-.27.84-.53,1.69-.85,2.52a.65.65,0,0,1-.92.36.58.58,0,0,1-.25-.19.79.79,0,0,0-1.41-.11,7,7,0,0,0-.9,1.26,1.37,1.37,0,0,1-1.78.83.9.9,0,0,0-.85.28c-.14.12-.26.26-.44.45m6.15-4.89c.06.06.14.23.27.28s.55-.31.57-.68a.4.4,0,0,0-.23-.29c-.23-.06-.56.29-.61.69" transform="translate(-1.1 -0.98)"/><path class="cls-2" d="M96.58,77.54l0-.36c-.51.56-.82.29-1.1-.32a3.67,3.67,0,0,1-.13.47s-.08.09-.12.13c-.16-.28-.46,0-.63-.15a.8.8,0,0,1-.34-.43.9.9,0,0,1,.81-1c.06,0,.14-.08.16-.15s.06-.38.12-.55a1.49,1.49,0,0,1,.24-.32,1.2,1.2,0,0,1,.13.39c0,.32-.05.65-.08,1a2.1,2.1,0,0,1,.38-.4c.11-.06.28,0,.42,0,0,.13-.07.26-.12.39s-.1,0-.1,0A6.14,6.14,0,0,0,96,77s.17.15.21.13c.25-.11.3-.33.34-.6.07-.56.2-1.12.32-1.68,0-.06.1-.11.15-.16s.09.13.09.19c-.06.52-.11,1-.21,1.54a11.24,11.24,0,0,1-.3,1.1h0M95,77c0-.18.07-.37.09-.55a.18.18,0,0,0-.08-.15.2.2,0,0,0-.17,0A.39.39,0,0,0,95,77" transform="translate(-1.1 -0.98)"/><path class="cls-2" d="M94.59,72.37c.09-.29.15-.51.23-.72s.12-.1.18-.15a1.8,1.8,0,0,1,.08.21c0,.17,0,.34,0,.52l.1,0,.13-.33a1.15,1.15,0,0,1,.14-.38,1.6,1.6,0,0,1,.34-.2,2.69,2.69,0,0,1,.14.46c0,.1-.12.21-.1.3a1.2,1.2,0,0,0,.17.34l.23-.17s0,0,.06-.06L96.6,72c0,.11,0,.23,0,.35s0,.16,0,.29l.29-.19.26-.2c0,.12,0,.24,0,.36a.73.73,0,0,1,0,.2c-.21.64-.26.7-.9.64s-1.08-.15-1.62-.24c-.32-.06-.63-1-.41-1.23a.28.28,0,0,1,.25,0,1.47,1.47,0,0,1,.19.38m2.23.43L96,72.7s-.09-.1-.14-.14c-.35-.28-.24-.62-.12-1a2.76,2.76,0,0,0-.21.56c-.06.13-.22.33-.29.31a.66.66,0,0,0-.61.17c-.08,0-.11.17-.17.25a.9.9,0,0,0,.22.11,6.35,6.35,0,0,1,1.53.19c.48.2.52-.07.66-.37" transform="translate(-1.1 -0.98)"/><path class="cls-2" d="M92.21,81.11c.45,0,.61-.26.56-.7a6,6,0,0,1,0-1c0-.27-.08-.32-.31-.17a.94.94,0,0,1-.24.06c0-.09,0-.21.11-.27a1.15,1.15,0,0,1,1.21-.29c.41.16.45.58.48,1,.09,1.15-.61,1.63-1.81,1.35m.74-.3c.62-.1.86-.57.72-1.34-.07-.35-.26-.49-.61-.37A2.09,2.09,0,0,1,93,80.81" transform="translate(-1.1 -0.98)"/><path class="cls-2" d="M95.1,79.45c0-.23-.19-.37-.55-.2a.46.46,0,0,1-.2,0c0-.06.06-.14.12-.18a.5.5,0,0,1,.83.22,8.32,8.32,0,0,1,.26,1c.06.33,0,.38-.33.39a.22.22,0,0,0-.11,0c-.24.14-.53.16-.65-.08a.9.9,0,0,1,0-.72c.09-.18.37-.26.64-.45m.32.79c-.22-.17-.32-.31-.44-.33s-.25.2-.23.27a.57.57,0,0,0,.29.28s.17-.09.38-.22" transform="translate(-1.1 -0.98)"/><path class="cls-2" d="M100.07,80.65a1,1,0,0,1-1.67.13c-.63-.57-.63-.57-1.15.11l-.13.15a1,1,0,0,1,.52-.94.51.51,0,0,1,.69.12c.11.13.26.24.38.37a.88.88,0,0,0,1.19.12l.14-.08,0,0" transform="translate(-1.1 -0.98)"/><path class="cls-2" d="M97.28,77.81a2.09,2.09,0,0,1,0-1.46c0-.07.13-.11.2-.16s.13.14.13.21a2.46,2.46,0,0,1-.36,1.41" transform="translate(-1.1 -0.98)"/><path class="cls-2" d="M98.1,75.73c-.18.13-.27.27-.36.26s-.18-.13-.28-.21c.08-.09.15-.22.25-.24s.2.09.39.19" transform="translate(-1.1 -0.98)"/><path class="cls-2" d="M77.31,99.65A1,1,0,0,0,78.92,99c.07-.37.19-.69-.27-.92a2,2,0,0,1-.58-.57.81.81,0,0,1-.11-.32,1,1,0,0,1,.3.12c.28.24.55.49.83.75a6.41,6.41,0,0,1,.54-.76,1.31,1.31,0,0,1,1.62-.21,1.61,1.61,0,0,0,.5.19c.34.05.66,0,.73-.45,0-.29.12-.58.18-.89-.36,0-.72.1-.78-.37a1.17,1.17,0,0,1,.61-1.19.59.59,0,0,1,.7.58c-.07.59-.14,1.19-.27,1.78a1.11,1.11,0,0,1-1.66.82c-.36-.14-.67-.44-1.15-.18s-.58.75-.7,1.23a4,4,0,0,1-.4,1.06,1,1,0,0,1-1.7-.06m4.86-4.19c.07.08.12.2.19.21s.59-.54.48-.74a.43.43,0,0,0-.24-.18c-.07,0-.18.08-.22.15a5.09,5.09,0,0,0-.21.56" transform="translate(-1.1 -0.98)"/><path class="cls-2" d="M76,90.61l.37.29.24.19.21-.29.15-.25c0,.08,0,.18.1.23s.21.18.26.16a.63.63,0,0,0,.29-.29c.05-.11,0-.29,0-.38A1.5,1.5,0,0,1,78,90a1.39,1.39,0,0,1,.25.46c0,.14-.11.29-.18.46a.41.41,0,0,0,.58-.28,1.33,1.33,0,0,1,.18-.3c0,.12.1.24.14.36a.42.42,0,0,0,.11.24,1.19,1.19,0,0,1,.17-.38,1,1,0,0,1,.32-.16.85.85,0,0,1,0,.26c0,.22-.08.45-.13.68-.13.7-.13.73-.82.84a5.25,5.25,0,0,1-1.42.09c-.25,0-.48-.17-.73,0,0,0-.08,0-.09,0-.2-.5-.41-1-.62-1.51l.13-.06m.39.69c.17.23.07.61.53.56.71-.06,1.42,0,2.12-.07a.38.38,0,0,0,.22-.27c0-.13,0-.38-.09-.39s-.4-.26-.65,0c-.07.07-.35,0-.49-.09s-.15-.27,0-.44,0-.23,0-.35l-.12,0a3,3,0,0,1-.22.55c-.1.16-.31.44-.4.41-.35-.11-.59.17-.93.14" transform="translate(-1.1 -0.98)"/><path class="cls-2" d="M74.82,97.28a6.74,6.74,0,0,1,1.08.45A.7.7,0,0,1,76,98.89a2.27,2.27,0,0,1-2,.79c-.06,0-.12-.1-.19-.15s.15-.16.21-.15c.39,0,.38-.16.28-.44a5.69,5.69,0,0,1-.16-.59c-.11-.49-.11-.49-.55-.23a3.27,3.27,0,0,1-.47.18c.11-.17.19-.41.34-.49a13.87,13.87,0,0,1,1.29-.53m.24,2c.23-.21.44-.37.61-.56.36-.42.27-.75-.26-.92a2.29,2.29,0,0,0-.64-.07s-.15.15-.14.2c.12.43.27.85.43,1.35" transform="translate(-1.1 -0.98)"/><path class="cls-2" d="M79.41,95.5a2.93,2.93,0,0,0-.55.18.58.58,0,0,1-.75,0,1.11,1.11,0,0,1-.25-1.2.53.53,0,0,1,.66-.36.69.69,0,0,1,.32.16s0,.14,0,.21l-.18,0a2.43,2.43,0,0,0-.45,0,1.83,1.83,0,0,0,0,.74c0,.09.3.13.46.11s.22-.18.23-.29c.05-.51.06-1,.09-1.52a.49.49,0,0,1,0-.21,2.13,2.13,0,0,1,.21-.22c0,.08.1.16.1.24,0,.74,0,1.48,0,2.12" transform="translate(-1.1 -0.98)"/><path class="cls-2" d="M76.28,95.73a4.22,4.22,0,0,1,0-1.07c0-.17.39-.25.6-.35,0,0,.12.14.19.21a.63.63,0,0,0-.2.1c-.1.1-.27.22-.28.33a1.71,1.71,0,0,0,.15.62.62.62,0,0,0,.31-.07.5.5,0,0,0,.12-.31c0-.5-.06-1-.09-1.48a.64.64,0,0,1,0-.24,1.07,1.07,0,0,1,.15-.22c.06.07.14.13.15.2.07.42.12.84.16,1.26a2.88,2.88,0,0,1,0,.65c0,.12.13.48-.26.29,0,0-.07,0-.09,0-.5.44-.5.44-1,0Z" transform="translate(-1.1 -0.98)"/><path class="cls-2" d="M77.31,97.76a.51.51,0,0,0-.7-.15.53.53,0,0,1-.22,0c0-.08,0-.18.08-.23a.71.71,0,0,1,1.09.2,3.89,3.89,0,0,1,.27,1.13c0,.07-.13.18-.22.25a.74.74,0,0,1-.91,0,.59.59,0,0,1-.24-.47.75.75,0,0,1,.64-.66l.21,0m-.1,1.07c.13-.18.27-.29.28-.41s-.16-.22-.24-.32l-.46.38c.12.09.23.19.42.35" transform="translate(-1.1 -0.98)"/><path class="cls-2" d="M76.26,95.71a.77.77,0,0,1-.84.54.69.69,0,0,1-.56-.67,1.1,1.1,0,0,1,.36-1,.53.53,0,0,1,.8,0c.23.29,0,.47-.2.63a3.11,3.11,0,0,0-.38.25,1.32,1.32,0,0,0-.18.22c.1.06.2.19.28.18a4.89,4.89,0,0,0,.74-.16l0,0" transform="translate(-1.1 -0.98)"/><path class="cls-2" d="M79.64,98.56c.11-.68.44-.93,1-.81l1,.26c.79.17,1.2-.06,1.65-.93a1.14,1.14,0,0,1-1.5,1.26,6.17,6.17,0,0,1-.87-.23.81.81,0,0,0-1,.28,1,1,0,0,1-.2.17" transform="translate(-1.1 -0.98)"/><path class="cls-2" d="M81.74,95.18a3.45,3.45,0,0,1-.1.56c0,.09-.12.15-.19.22-.06-.09-.16-.19-.16-.29s.07-.46.07-.69a1.18,1.18,0,0,0-.11-.35c-.12.05-.28.06-.34.15a3.92,3.92,0,0,0-.29.58,1.51,1.51,0,0,1-.17.2c0-.07-.14-.15-.13-.22.05-.36.12-.72.19-1.08,0,0,.13-.05.19-.07.08.27.28.15.45.14.42,0,.58.21.59.85" transform="translate(-1.1 -0.98)"/><path class="cls-2" d="M80.15,94.57a7.6,7.6,0,0,1-.1.8c0,.09-.15.16-.22.24-.06-.08-.17-.17-.16-.25a5.15,5.15,0,0,1,.11-1c0-.11.14-.2.22-.29,0,.11.1.22.14.33a.31.31,0,0,1,0,.14" transform="translate(-1.1 -0.98)"/><path class="cls-2" d="M80,93.85c-.09-.15-.19-.24-.19-.33s.12-.24.15-.23a1.61,1.61,0,0,1,.33.2l-.29.36" transform="translate(-1.1 -0.98)"/><path class="cls-1" d="M131.52,53a4.51,4.51,0,0,0,.7.8c.43.32.38.68.27,1.1a5.11,5.11,0,0,1-5.67,3.83,6.06,6.06,0,0,1-4.12-2.33,5.19,5.19,0,0,1-1.13-2.95,1,1,0,0,1,.27-.91c.33-.27.27-.55.11-.86a1,1,0,0,1,.25-1.2c.27-.32.63-.25,1-.23.24-.92.44-1,1.39-1a1.85,1.85,0,0,0,.47-.08c.76-.15,1,0,1.24.69a1.57,1.57,0,0,0,.09.23s0,0,.07,0,.12,0,.14,0a2.28,2.28,0,0,1,2.36-1.16,1.61,1.61,0,0,1,1.31.76c.29.43.52.89.8,1.36.15,0,.32-.12.51-.17a1.85,1.85,0,0,1,1.29.08,1.58,1.58,0,0,0,1.42.1c.19-.09.31,0,.33.23,0,.43-.24.85-.09,1.29,0,.06-.06.15-.11.21a1.15,1.15,0,0,1-1.53.36l-.52-.25a.68.68,0,0,0-.83.13c0-.31,0-.55.41-.58a.79.79,0,0,0,.31-.08c.05,0,.06-.14.06-.21s-.06-.11-.1-.11-.26,0-.31,0c-.27.29-.54.12-.92.08a4.14,4.14,0,0,0,.5-.44s0-.17,0-.23a.26.26,0,0,0-.2-.06c-.12.06-.21.17-.33.24s-.21.13-.27.1a.31.31,0,0,1-.12-.27,1.8,1.8,0,0,0-.46-1.44A2,2,0,0,0,127,50s0,.05,0,.11a.61.61,0,0,0,.6,0,2.14,2.14,0,0,1,.64-.36,1.26,1.26,0,0,1,.79,0c.52.26,1,.65,1,1.3s.26.89.65,1.21.58.5.86.75m-.21,3.52a3.29,3.29,0,0,0,.35-.5c.76-1.56.71-1.5-.35-2.64a18.19,18.19,0,0,0-1.94-1.78,3.74,3.74,0,0,0-4.2-.67,17.08,17.08,0,0,0-2.45,1.34,3.9,3.9,0,0,0-.68.6.62.62,0,0,0-.16.44,5,5,0,0,0,.56,2,.21.21,0,0,0,.34.09c.21-.13.41-.27.63-.39,1-.6,2.11-1.17,3.15-1.78a.89.89,0,0,1,1.19.14l.31.27c.46.38.91.79,1.39,1.16a8.36,8.36,0,0,1,1.44,1.35,5.55,5.55,0,0,0,.42.41m-.35.35a9.77,9.77,0,0,0-1.66-1.68c-.48-.36-.94-.75-1.39-1.16s-.58-.52-1.26-.08-1.62,1-2.43,1.54c-.25.16-.52.31-.76.48s-.39.16-.26.43.29.24.62,0l.33-.24c.79-.5,1.57-1,2.36-1.5a3.68,3.68,0,0,1,.49-.23,6.51,6.51,0,0,1-1.6,1.23l-1.7,1.14c.42.49.41.48.79.22.81-.56,1.63-1.11,2.45-1.66a5.6,5.6,0,0,1,.55-.27.47.47,0,0,1-.21.34l-1,.62q-.85.59-1.68,1.2a.31.31,0,0,0-.11.26c0,.12.29.2.41.13s.23-.16.34-.23l2.77-1.79a2.83,2.83,0,0,1,.4-.17l.07.12-3.35,2.23c1.5,1.05,4.66.68,5.79-.95m-4.9-6.62c-.06-.14-.1-.27-.16-.39-.2-.35-.36-.43-.74-.34-.13,0-.24.12-.37.16a.81.81,0,0,1-.31,0c-.69-.18-.8-.12-.94.52-.09.39-.09.39-.48.36-.66-.06-1,.39-.83,1,.11.31.21.43.54.21a13.57,13.57,0,0,1,3.29-1.54m8.08,1.14a1.72,1.72,0,0,1-1.3,0,.35.35,0,0,0-.28,0c-.08.06,0,.29.15.32s.32,0,.47,0a.26.26,0,0,1,.16.19.55.55,0,0,1-.09.29c-.07.12-.17.24-.22,0a.23.23,0,0,0-.36-.19c-.08.05-.11.22-.13.34a.29.29,0,0,0,.07.23,1.45,1.45,0,0,0,1,.37.57.57,0,0,0,.55-.59c0-.3,0-.59,0-1m-4.47-.16c.14-.65-.27-1-.71-1.18a1,1,0,0,0-1.13.22l1.84,1m-3.95,3,0-.1a2,2,0,0,0-.34.12c-.57.32-1.13.65-1.69,1-.23.14-.46.29-.68.45,0,0,0,.12-.07.18s.16,0,.22,0c.63-.37,1.25-.76,1.88-1.14l.73-.47M132,51.05a1.57,1.57,0,0,0-.25.35c0,.2.07.3.28.28s.3-.06.26-.23-.16-.22-.29-.4" transform="translate(-1.1 -0.98)"/><path class="cls-1" d="M32,17.65c.1.12.27.22.29.35a.38.38,0,0,0,.45.36h.08A.85.85,0,0,0,34,18a1.76,1.76,0,0,1,1-.66.34.34,0,0,1,.32.1c-.19.1-.38.19-.56.3a2.16,2.16,0,0,0-1,2.56,3,3,0,0,0,3,2.13,2.2,2.2,0,0,0,1.94-3.25,6.71,6.71,0,0,0-.35-.65.34.34,0,0,1,.1-.5l.63-.46c-1.28.23-2.2-.44-3.21-.8,0,.15-.09.3-.15.52a1,1,0,0,1-.12-1c0-.17.28-.35.47-.42a2.69,2.69,0,0,1,2.57.35,2.62,2.62,0,0,1,.59.56.63.63,0,0,1,0,.95,5,5,0,0,1-.64.55c.14.26.25.44.34.62a2.53,2.53,0,0,1-.14,2.87,2.67,2.67,0,0,1-2.72,1,1.66,1.66,0,0,1-.55-.15.63.63,0,0,0-1,.19,2.43,2.43,0,0,1-2,.89,2.57,2.57,0,0,1-2.56-2.57A9.37,9.37,0,0,1,30,20a2.56,2.56,0,0,1-.46-.11.47.47,0,0,1-.38-.62,1.71,1.71,0,0,1,.6-1.14c.26-.19.52-.4.8-.58a1.51,1.51,0,0,1,1-.25c.21,0,.38.09.4.33-.14,0-.27,0-.41,0-.38,0-.41,0-.39.42a1.83,1.83,0,0,0,.05.4.24.24,0,0,0,.17.12.55.55,0,0,0,.52-.56c0-.13,0-.26,0-.4m6.26-.49a1.82,1.82,0,0,1-.29-.45c-.26-.78-.25-.79-1-.32a4.9,4.9,0,0,0-.42.4c.48.18.89.35,1.3.48.09,0,.23-.08.34-.13a.93.93,0,0,0,.92.11,1.82,1.82,0,0,0-.87-.84c0,.28,0,.52,0,.75m-4.11,4.63,0,0a2.53,2.53,0,0,0-.18-.37,2.78,2.78,0,0,1-.58-2.39.26.26,0,0,0-.26-.34,4.51,4.51,0,0,0-1.22.06,2.25,2.25,0,0,0-1.58,2.56,2.29,2.29,0,0,0,4.16,1,.27.27,0,0,0-.07-.42,1.51,1.51,0,0,0-.29-.13m-4.4-3.06c.19.05.3.1.43.12.88.2,1,.11.72-.75a1.79,1.79,0,0,0-.13-.22,2.5,2.5,0,0,0-1,.85m.8.51c-.22-.06-.45-.11-.67-.18s-.3,0-.34.22,0,.32.23.34.65.06.78-.38m6.32-3.19a1,1,0,0,0-.81.18.13.13,0,0,0,0,.25c.1.06.27.11.34.06a3.68,3.68,0,0,0,.45-.49" transform="translate(-1.1 -0.98)"/><path class="cls-1" d="M52.54,22.31,54.72,25a1,1,0,0,1,.22,1,2.92,2.92,0,0,1-1.13,1.75,12.63,12.63,0,0,0-1.13.95,2.41,2.41,0,0,1-1.33.61,1.63,1.63,0,0,1-1.54-.53c-1-1.13-2.05-2.22-3.09-3.31-.24-.26-.21-.46-.13-.8a5.34,5.34,0,0,1,2-2.64,1,1,0,0,1,.27-.2c.42-.14.39-.41.31-.78a2.14,2.14,0,0,1,1-2.27,2.18,2.18,0,0,1,3,3,1.43,1.43,0,0,1-.63.49l.38-.71a1.81,1.81,0,0,0-.07-2,.25.25,0,0,0-.35-.11.44.44,0,0,0-.27-.46,1.81,1.81,0,0,0-1.91,0c.15.25.3.48.42.72a4.55,4.55,0,0,1,.21.51c-.31-.07-.36-.38-.53-.58s-.24-.28-.41-.5c-.19.32-.35.57-.48.83a.24.24,0,0,0,.14.34,1.82,1.82,0,0,1,.93.54c-.39-.1-.62-.17-.86-.22a.42.42,0,0,0-.21,0,1.94,1.94,0,0,0,0,.54c0,.16.19.16.34.11L51.2,21h.24a2.75,2.75,0,0,1,1.47-.24,7,7,0,0,1-.85.27c-.31.09-.35.18-.16.46s.43.58.64.87m-5.4,3c.09.13.14.23.21.31l3.09,3.28a.5.5,0,0,0,.28.14,2.1,2.1,0,0,0,1.88-.58,5.42,5.42,0,0,1,1-.92,2.63,2.63,0,0,0,1-1.62.53.53,0,0,0-.06-.37,5.12,5.12,0,0,0-.4-.52l-2.63-3.37a.88.88,0,0,0-.23-.18c-.07.35-.14.64-.18.94a1.63,1.63,0,0,1-.78,1.2,3.87,3.87,0,0,0-.64.51,3.24,3.24,0,0,1-1.56.85c-.34.09-.67.21-1,.33m-.33-.23c.34-.11.54-.19.75-.24a5.74,5.74,0,0,0,2.57-1.34A2.34,2.34,0,0,0,51,21.52c0-.19-.16-.26-.35-.17-.35.16-.68.35-1,.49a7,7,0,0,0-2.09,1.68,1.54,1.54,0,0,0-.28.5c-.13.3-.23.61-.39,1" transform="translate(-1.1 -0.98)"/><path class="cls-1" d="M62,9.76c.15-.26.44-.23.66-.27a3.7,3.7,0,0,1,2,.11c.31.11.36.23.32.57-.09.87-.18,1.74-.28,2.61a1.67,1.67,0,0,0,.55,1.55A2.77,2.77,0,0,1,66,16a14.16,14.16,0,0,1,.1,3.44c-.08,1-.29,2-.45,3a3.58,3.58,0,0,1-.2.71c0,.08-.16.2-.23.19a12.32,12.32,0,0,0-1.91.34,10.25,10.25,0,0,1-3.49-.4c-.64-.19-.65-.23-.65-.86a32.64,32.64,0,0,1,.55-6.54A2.87,2.87,0,0,1,60.83,14a1.51,1.51,0,0,0,.67-1.09,13.81,13.81,0,0,0,.41-3A.47.47,0,0,1,62,9.74c.07.08.12.21.21.24a3.25,3.25,0,0,0,1.9.15c.11,0,.28,0,.27-.28A16,16,0,0,0,62,9.76m.28.7c-.14.82-.28,1.63-.4,2.44a1.82,1.82,0,0,1-.76,1.31A2.47,2.47,0,0,0,60,16a27.71,27.71,0,0,0-.51,4.9c0,.41,0,.82-.05,1.23,0,.21-.12.5,0,.61a1.46,1.46,0,0,0,.65.31,4.17,4.17,0,0,0,.49.08,11.84,11.84,0,0,0,3.85,0c.53-.08.55-.05.69-.61a18.68,18.68,0,0,0,.41-6.45,2.42,2.42,0,0,0-.76-1.6,1.77,1.77,0,0,1-.57-1.63c.09-.68.17-1.36.26-2,0-.35,0-.43-.31-.36a2.58,2.58,0,0,1-1.14,0,4.27,4.27,0,0,0-.8,0" transform="translate(-1.1 -0.98)"/><path class="cls-1" d="M60,78.82a18,18,0,0,1-1.25,5.73c-.06.12-.11.25-.17.37-.3.56-.42.59-1,.3L56,84.31a15.57,15.57,0,0,0-3.12-1,6.52,6.52,0,0,1-.63-.18,2.18,2.18,0,0,1-1.5-2.29,5,5,0,0,1,.5-1.89,2.53,2.53,0,0,1,2.16-1.42,5,5,0,0,1,1.39.09.4.4,0,0,0,.47-.18,2.8,2.8,0,0,1,3.8-.81,1.59,1.59,0,0,1,1,1.59v.61M58.14,85c.2-.47.41-.89.55-1.33a17.59,17.59,0,0,0,.79-3.43c.08-.71.13-1.42.16-2.13a1.18,1.18,0,0,0-.72-1.2,2.51,2.51,0,0,0-2.78.08,4.1,4.1,0,0,0-.61.64.44.44,0,0,1-.41.19,12.88,12.88,0,0,0-1.64,0,2.2,2.2,0,0,0-1.82,1,3.94,3.94,0,0,0-.56,2.68,1.32,1.32,0,0,0,.26.58,2.38,2.38,0,0,0,1.43.89A15.6,15.6,0,0,1,56.14,84l2,1" transform="translate(-1.1 -0.98)"/><path class="cls-1" d="M45.13,19.1a5.23,5.23,0,0,1,.57.06.26.26,0,0,1,.18.43,1.31,1.31,0,0,1-1,.56c-.66,0-1.32,0-2,0a.47.47,0,0,1-.24,0,.9.9,0,0,1-.33-.31c0-.05.12-.23.22-.3a3.64,3.64,0,0,1,.66-.32.77.77,0,0,0,.58-.88c-.07-.79-.13-1.58-.22-2.37a.59.59,0,0,0-.18-.35,4.8,4.8,0,0,1-1.34-3.44c0-.58,0-1.16,0-1.73a.8.8,0,0,1,.73-.86,5.58,5.58,0,0,1,2.37.06.31.31,0,0,1,.24.28,1,1,0,0,1,0,.17,16.41,16.41,0,0,1-.16,3.77,3.43,3.43,0,0,1-.44,1.23.77.77,0,0,0-.16.44c.1,1.12.21,2.24.32,3.36a1.61,1.61,0,0,0,.07.25m.38.5c-.72-.4-.74-.4-.82-1.12-.09-.9-.12-1.8-.2-2.71a1.38,1.38,0,0,1,.27-1.14A1.42,1.42,0,0,0,45,14a16.47,16.47,0,0,0,.3-3.36c0-.13,0-.26,0-.39l-2.32.12c-.45,0-.49.06-.5.55,0,.27,0,.55,0,.82a5.08,5.08,0,0,0,1.35,3.69.54.54,0,0,1,.16.27,20.24,20.24,0,0,1,.26,2.69,1,1,0,0,1-.61,1c-.2.09-.46.13-.6.47a5.48,5.48,0,0,0,2.56-.25M45,9.77H43.71c-.36,0-.75-.08-1.07.26,1.47.1,1.59.09,2.32-.26" transform="translate(-1.1 -0.98)"/><path class="cls-1" d="M53.7,16a2.42,2.42,0,0,1-.27.36,7.84,7.84,0,0,1-2,1.27,1.63,1.63,0,0,1-.48.13c-.22,0-.41-.18-.29-.35a2.53,2.53,0,0,0-.14-2.86c-.21-.39-.44-.77-.67-1.14a.42.42,0,0,0-.53-.24,1.73,1.73,0,0,1-1.41-.55,3,3,0,0,1-.6-.67c-.44-.66-.86-1.34-1.28-2a.35.35,0,0,1,0-.45,3.49,3.49,0,0,1,2.71-1.35.46.46,0,0,1,.47.25c.4.84.83,1.67,1.21,2.52a1.61,1.61,0,0,1,0,1.51.42.42,0,0,0,.07.52c.48.7,1,1.39,1.45,2.1a1.51,1.51,0,0,0,1.41.82,1,1,0,0,1,.24.05s0,0,.09.09M46.34,9.8c.49.74.9,1.45,1.39,2.1a2.4,2.4,0,0,0,1.8,1,.63.63,0,0,1,.47.29,6.77,6.77,0,0,1,1.21,2.22A2,2,0,0,1,51,17.31s0,.09,0,.13A4.54,4.54,0,0,0,53.27,16c-.85.13-1.21-.41-1.58-1s-.93-1.36-1.41-2a.65.65,0,0,1-.11-.68,2.12,2.12,0,0,0-.12-1.67c-.28-.6-.56-1.19-.85-1.78a2.83,2.83,0,0,0-.33-.45A3.57,3.57,0,0,1,46.34,9.8m2-1.28A2.61,2.61,0,0,0,46.94,9a2.21,2.21,0,0,0-.33.44,2.37,2.37,0,0,0,1.76-1" transform="translate(-1.1 -0.98)"/><path class="cls-1" d="M72.15,6.72a3.56,3.56,0,0,1,.72-2.22,3.88,3.88,0,0,1,3.86-1.22,3.79,3.79,0,0,1,2.71,3,3.37,3.37,0,0,1-1.82,3.48,3.77,3.77,0,0,1-5.34-2.32c-.08-.29-.1-.59-.13-.73m3.73,3.09a3.08,3.08,0,0,0,2-5.52,3.44,3.44,0,0,0-2.35-.79,3.09,3.09,0,0,0-3,3,3.32,3.32,0,0,0,3.34,3.34" transform="translate(-1.1 -0.98)"/><path class="cls-1" d="M140.29,60.14l-.32.25A8.08,8.08,0,0,0,138,62.05a16.27,16.27,0,0,1-3.27,3,14.34,14.34,0,0,1-5.89,2.42,24.16,24.16,0,0,1-2.53.28,14.19,14.19,0,0,1-1.68-.11c.13-.34.36-.3.55-.28a9.72,9.72,0,0,0,2.47-.08,14.87,14.87,0,0,0,7.45-3,17.29,17.29,0,0,0,2.73-2.61,6.11,6.11,0,0,1,1.85-1.5.45.45,0,0,1,.57,0" transform="translate(-1.1 -0.98)"/><path class="cls-1" d="M140.5,63a1.43,1.43,0,0,1-.31.24,5.68,5.68,0,0,0-1.6,1.28c-.38.4-.75.8-1.14,1.19a10.26,10.26,0,0,1-6.29,3.09c-1.59.14-3.17.27-4.76.39-.05,0-.12-.06-.18-.1s.09-.15.15-.16a10.14,10.14,0,0,1,1.2-.23c1.37-.15,2.73-.27,4.1-.41a6.28,6.28,0,0,0,2.27-.68,12.1,12.1,0,0,0,3.44-2.5c.49-.52,1-1,1.53-1.5a5.54,5.54,0,0,1,1-.69,1.51,1.51,0,0,1,.54-.07l0,.15" transform="translate(-1.1 -0.98)"/><path class="cls-1" d="M64.15,85.77a3.21,3.21,0,0,1-1.24,1.43,12.51,12.51,0,0,1-2.74,1.48,6.65,6.65,0,0,1-3.48.32,16.44,16.44,0,0,1-4.18-1.16,13.33,13.33,0,0,1-1.45-.76,3.3,3.3,0,0,1-.51-.48c.33-.25.48.11.68.23a13,13,0,0,0,4.13,1.55,18.58,18.58,0,0,0,2.36.31,6.05,6.05,0,0,0,2.63-.54,18.64,18.64,0,0,0,3.55-2.21l.25-.17" transform="translate(-1.1 -0.98)"/><path class="cls-1" d="M63.49,88.11a2.35,2.35,0,0,1-1,1.31,6.89,6.89,0,0,1-3.4,1.11,13,13,0,0,1-5.42-.67,6.76,6.76,0,0,1-2-1c.22-.23.38-.08.54,0a10.83,10.83,0,0,0,3.18,1.06,10.63,10.63,0,0,0,1.38.18c.57,0,1.15,0,1.73,0a6.4,6.4,0,0,0,4.32-1.52c.2-.17.45-.3.67-.46" transform="translate(-1.1 -0.98)"/><path class="cls-1" d="M63.69,90.6a1.63,1.63,0,0,1-.83,1.27,7.16,7.16,0,0,1-6.23,1.2c-.52-.15-1-.33-1.55-.53a2.42,2.42,0,0,1-.54-.36.14.14,0,0,1,0-.14s.1-.08.14-.06l.61.24a8.43,8.43,0,0,0,3.44.66,6.7,6.7,0,0,0,2.38-.57,9,9,0,0,0,2.61-1.71" transform="translate(-1.1 -0.98)"/><path class="cls-1" d="M72.65,13.73c-.28-.36-.57-.72-.85-1.09s-.42-.57-.66-.9c-.39.32-.72.64-1.09.91s-.74.44-1.15.68a2.71,2.71,0,0,0,.19.25,3,3,0,0,1,1,1.74,2.34,2.34,0,0,0,.21.53A.84.84,0,0,1,69.8,17a.35.35,0,0,1-.45-.34.86.86,0,0,1,.37-.69c.31-.3.34-.34.09-.67-.39-.52-.82-1-1.26-1.51-.26-.29-.29-.5,0-.73a4.23,4.23,0,0,1,.42-.25c.67-.43,1.34-.85,2-1.29a.34.34,0,0,1,.5.05,4.92,4.92,0,0,1,1.25,2.09l-.07.06" transform="translate(-1.1 -0.98)"/><path class="cls-1" d="M140.85,68.63l-.35.14a26.44,26.44,0,0,0-3.05,1.41A7.88,7.88,0,0,0,134.08,74a11.47,11.47,0,0,0-.35,1.43,1.49,1.49,0,0,1-.14.37s-.18,0-.19,0a.49.49,0,0,1-.07-.31,9.7,9.7,0,0,1,.34-1.51,7.85,7.85,0,0,1,1.52-2.42,11.8,11.8,0,0,1,5.18-3,1.54,1.54,0,0,1,.48,0v.15" transform="translate(-1.1 -0.98)"/><path class="cls-1" d="M135.51,77.81a3.12,3.12,0,0,1,0-.54,7.72,7.72,0,0,1,1.13-3,9.33,9.33,0,0,1,2.64-2.56,6.09,6.09,0,0,1,1.18-.56,2.59,2.59,0,0,1,.72,0,5.45,5.45,0,0,1-.51.28,5.53,5.53,0,0,0-2,1.23,7.35,7.35,0,0,0-2.52,3.94,1.88,1.88,0,0,1-.62,1.27" transform="translate(-1.1 -0.98)"/><path class="cls-1" d="M38.43,20.14a1.59,1.59,0,0,1-1.56,1.66,2.33,2.33,0,0,1-2.39-1.73,1.68,1.68,0,0,1,1.78-2.16,2.25,2.25,0,0,1,2.17,2.23m-2.28-2a1.31,1.31,0,0,0-1.42,1.27,2,2,0,0,0,2.06,2.07,1.41,1.41,0,0,0,1.34-1.89,2.11,2.11,0,0,0-2-1.45" transform="translate(-1.1 -0.98)"/><path class="cls-1" d="M2.63,83.55a1.64,1.64,0,0,1,.05-.45,3.14,3.14,0,0,1,2.6-2A11.09,11.09,0,0,1,6.43,81a3.3,3.3,0,0,1,1.74.42l1.35.76a.19.19,0,0,1,0,.15.15.15,0,0,1-.13.08.66.66,0,0,1-.31-.06,8.46,8.46,0,0,1-.94-.5,2.88,2.88,0,0,0-1.8-.46H5.8A3,3,0,0,0,3,83.19c-.07.14-.16.27-.24.4l-.1,0" transform="translate(-1.1 -0.98)"/><path class="cls-1" d="M3.11,85.18c0-.24,0-.38,0-.46a4.05,4.05,0,0,1,.61-.86,4.37,4.37,0,0,1,3.5-1.06,1.7,1.7,0,0,1,1.29.77c-.47.15-.74-.31-1.14-.34a7,7,0,0,0-1.21,0A4.35,4.35,0,0,0,5,83.49a4,4,0,0,0-1,.64,7.84,7.84,0,0,0-.84,1.05" transform="translate(-1.1 -0.98)"/><path class="cls-1" d="M8.11,85.52a2.94,2.94,0,0,1-.67,0,3.34,3.34,0,0,0-3.69,1.37,1.25,1.25,0,0,1-.24.21s-.06,0-.07,0A.31.31,0,0,1,3.35,87a.09.09,0,0,1,0-.08A3.5,3.5,0,0,1,7.94,85.3c.06,0,.09.12.17.22" transform="translate(-1.1 -0.98)"/><path class="cls-1" d="M138.37,79.89c-.07,0-.16-.08-.2-.14a.68.68,0,0,1-.08-.31A4.75,4.75,0,0,1,140,75.3a1.91,1.91,0,0,1,.43-.21.19.19,0,0,1,.14,0s0,.12,0,.15a2.66,2.66,0,0,1-.31.26,4.71,4.71,0,0,0-1.81,3.61l0,.57a1.66,1.66,0,0,1-.06.16" transform="translate(-1.1 -0.98)"/><path class="cls-1" d="M124.75,64a1,1,0,0,1-1-1.07,1.08,1.08,0,0,1,1.18-1.08,1,1,0,0,1,1,1,1.23,1.23,0,0,1-1.2,1.13m.8-1.08a.81.81,0,0,0-.7-.78.88.88,0,0,0-.82.77.77.77,0,0,0,.66.72.83.83,0,0,0,.86-.71" transform="translate(-1.1 -0.98)"/><path class="cls-1" d="M60.28,99.65a2.58,2.58,0,0,1,.09-.62,3.36,3.36,0,0,1,1.31-1.64,5.86,5.86,0,0,1,1.9-.73.9.9,0,0,1,.4,0c.09,0,.16.13.24.2a1.14,1.14,0,0,1-.17.15,2.6,2.6,0,0,1-.4.1l-.71.18A3.35,3.35,0,0,0,60.6,99.4a1.91,1.91,0,0,1-.16.27l-.16,0" transform="translate(-1.1 -0.98)"/><path class="cls-1" d="M64.1,98.54a1.75,1.75,0,0,0-1.7,1.23.93.93,0,0,0,.19,1.13,1.14,1.14,0,0,0,1.23.17c.21-.12.4-.28.61-.42-.08.32-.09.37-.31.53a1.35,1.35,0,0,1-.63.34,1.42,1.42,0,0,1-1.31-.55,1.23,1.23,0,0,1-.09-1.33,2.5,2.5,0,0,1,1-1.1.84.84,0,0,1,1,0" transform="translate(-1.1 -0.98)"/><path class="cls-1" d="M126.06,39.7c.2,0,.34,0,.47.07a1,1,0,0,1,.71.82.94.94,0,0,1-.63.86,1.29,1.29,0,0,1-1.25-.08.8.8,0,0,1,0-1.44,3.24,3.24,0,0,1,.71-.23m0,.33a2.18,2.18,0,0,0-.41.1.5.5,0,0,0-.33.52.53.53,0,0,0,.32.44.88.88,0,0,0,.79,0c.24-.09.45-.22.47-.51s-.2-.45-.53-.54L126,40" transform="translate(-1.1 -0.98)"/><path class="cls-1" d="M7.42,88a4.12,4.12,0,0,1-.89,0A2.61,2.61,0,0,0,4,88.7l-.13.09-.16,0c0-.18,0-.37.13-.45a2.57,2.57,0,0,1,2.78-.71c.2.07.39.16.76.32" transform="translate(-1.1 -0.98)"/><path class="cls-1" d="M3.43,64.33a.53.53,0,0,1,.74-.08.82.82,0,0,1,.42.66,1.2,1.2,0,0,1-1,1.22.88.88,0,0,1-1-.87,1.4,1.4,0,0,1,.22-.6.6.6,0,0,1,.6-.35A4.12,4.12,0,0,0,3,65a.56.56,0,0,0,.08.68.6.6,0,0,0,.67.15.85.85,0,0,0,.6-.7.56.56,0,0,0-.31-.6,4.34,4.34,0,0,0-.62-.16" transform="translate(-1.1 -0.98)"/><path class="cls-1" d="M72.72,13.67l.33.46c.27.36.27.55,0,.85s-.71.44-.91.21-.13-.51.2-.86c.16-.18.41-.29.31-.6l.07-.06" transform="translate(-1.1 -0.98)"/><path class="cls-1" d="M64.45,72.06c-.15.23-.27.38-.36.54s-.13.37,0,.52a.43.43,0,0,0,.53.07.46.46,0,0,0,.25-.48.88.88,0,0,0,0-.15c0-.11-.21-.26,0-.31s.26.11.32.21a.77.77,0,0,1-.22.89.67.67,0,0,1-.83.13.65.65,0,0,1-.4-.73.69.69,0,0,1,.7-.69" transform="translate(-1.1 -0.98)"/><path class="cls-1" d="M56.51,73.8a.76.76,0,0,1-.64.73.53.53,0,0,1-.49-.54.6.6,0,0,1,.62-.61.46.46,0,0,1,.51.42m-.72.45c.12-.08.21-.11.23-.16s-.05-.39-.17-.37a.21.21,0,0,0-.14.15,1.73,1.73,0,0,0,.08.38" transform="translate(-1.1 -0.98)"/><path class="cls-1" d="M61.43,83.79a.61.61,0,0,1-.66-.57c0-.31.11-.46.48-.54s.49-.18.68.08a.71.71,0,0,1-.15.83,1.06,1.06,0,0,1-.35.2m.12-.86-.28,0c-.15,0-.24.12-.2.28a.27.27,0,0,0,.36.21.58.58,0,0,0,.22-.22A.29.29,0,0,0,61.7,83c0-.05-.12-.07-.15-.08" transform="translate(-1.1 -0.98)"/><path class="cls-1" d="M78.58,75.35a1.81,1.81,0,0,1,.4,0,.34.34,0,0,1,.19.23.79.79,0,0,1-.61.84.55.55,0,0,1-.62-.39,1.75,1.75,0,0,1,.06-.72c.09-.26.32-.25.6,0-.41.15-.51.32-.37.62a.27.27,0,0,0,.46.08c.08-.1.19-.25.17-.34a1.21,1.21,0,0,0-.28-.37" transform="translate(-1.1 -0.98)"/><path class="cls-1" d="M8.36,70.48c.35,0,.6.17.61.41a.76.76,0,0,1-.73.82.57.57,0,0,1-.56-.58.63.63,0,0,1,.68-.65m.32.41c-.06,0-.15-.17-.25-.18-.25,0-.51.23-.45.44a.39.39,0,0,0,.26.24c.25,0,.45-.17.44-.5" transform="translate(-1.1 -0.98)"/><path class="cls-1" d="M3.92,79.05a.75.75,0,0,1-.7.58.47.47,0,0,1-.47-.47.59.59,0,0,1,.57-.66.6.6,0,0,1,.6.55m-.59-.32c-.13.16-.27.27-.29.39s.12.22.27.2.33-.1.3-.29-.16-.17-.28-.3" transform="translate(-1.1 -0.98)"/><path class="cls-1" d="M67.38,8.13a4.23,4.23,0,0,1-1.58.77s-.13-.07-.17-.13,0-.1.05-.14a.74.74,0,0,1,.21-.13,6.77,6.77,0,0,1,1.49-.37" transform="translate(-1.1 -0.98)"/><path class="cls-1" d="M61.26,8.6A1.86,1.86,0,0,1,60,8.15a.24.24,0,0,1,0-.22.18.18,0,0,1,.19-.06c.37.23.72.48,1.07.73" transform="translate(-1.1 -0.98)"/><path class="cls-1" d="M62.79,8.12a1.22,1.22,0,0,1-.49-1c0-.08.11-.15.17-.22s.14.09.16.15c.06.36.11.73.16,1.09" transform="translate(-1.1 -0.98)"/><path class="cls-1" d="M64.41,7.93a1.64,1.64,0,0,1,0-.45c.11-.25.14-.58.49-.68l.06,0c.13.33-.12.55-.22.81a1.72,1.72,0,0,1-.23.32l-.15,0" transform="translate(-1.1 -0.98)"/><path class="cls-1" d="M63.78,99.62l-.19.17c-.09.07-.17.15-.05.25s.31.08.08.24-.39.15-.49,0a.63.63,0,0,1,0-.52c.08-.13.3-.18.47-.24s.1.09.17.15" transform="translate(-1.1 -0.98)"/><path class="cls-1" d="M44.17,8.08a4.64,4.64,0,0,1,1,1c-.57-.24-.66-.33-1-1" transform="translate(-1.1 -0.98)"/><path class="cls-1" d="M45.64,8.1c0,.21,0,.42-.06.63,0,0-.07.09-.12.1s-.09-.08-.09-.1c.1-.21,0-.5.28-.62Z" transform="translate(-1.1 -0.98)"/><path class="cls-1" d="M45.65,8.11a1.7,1.7,0,0,1,0-.22s.07-.09.11-.14.06.1,0,.13a1.7,1.7,0,0,1-.15.22Z" transform="translate(-1.1 -0.98)"/><path class="cls-1" d="M51.2,21c-.09-.22-.19-.44-.29-.66.41.19.4.18.66-.07s.38-.54.74-.59c-.23.3-.46.59-.67.9a2.3,2.3,0,0,0-.2.42H51.2" transform="translate(-1.1 -0.98)"/><path class="cls-1" d="M126.52,51.89l-.11.09-.06-.08s0,0,.05,0l.12,0" transform="translate(-1.1 -0.98)"/><path class="cls-1" d="M128.45,56.29l-2,1.49a1.12,1.12,0,0,1-.22.09c0-.33.27-.37.42-.51s.39-.29.59-.44.35-.25.54-.36.43-.23.64-.34l.07.07" transform="translate(-1.1 -0.98)"/><path class="cls-1" d="M129.08,56.75,127.36,58s-.11,0-.13,0,0-.13,0-.14l1.82-1.06Z" transform="translate(-1.1 -0.98)"/><path class="cls-1" d="M128.38,56.22l.38-.29c.11-.07.23-.11.37-.18,0,.24-.16.25-.26.32a3.42,3.42,0,0,1-.42.23l-.07-.08" transform="translate(-1.1 -0.98)"/><path class="cls-1" d="M129.05,56.72l.38-.3a.44.44,0,0,1,.08.11l-.43.22Z" transform="translate(-1.1 -0.98)"/><path class="cls-1" d="M62.63,32.94c0,.58-.27.88-.67.89a.41.41,0,0,1-.45-.27.89.89,0,0,1,.35-.93.75.75,0,0,1,.53,0c.14.06.2.27.24.33m-.58.58a1.8,1.8,0,0,0,.23-.39c0-.07-.07-.18-.11-.27s-.21.06-.25.13a.75.75,0,0,0-.08.37s.1.08.21.16" transform="translate(-1.1 -0.98)"/><path class="cls-1" d="M61.3,36.27l-.58.76c.53,0,.67-.18.81-1,.31.11.33.35.24.6a1.52,1.52,0,0,1-.78.8.34.34,0,0,1-.49-.13.51.51,0,0,1,0-.45,7.36,7.36,0,0,1,.68-.69l.11.12" transform="translate(-1.1 -0.98)"/><path class="cls-1" d="M58.07,33.7a1.33,1.33,0,0,1,1.46,1A1.18,1.18,0,0,1,58.64,36a1.47,1.47,0,0,1-1.26-.14A1.07,1.07,0,0,1,57.32,34a2.94,2.94,0,0,1,.75-.29m0,2.09h.28a1.07,1.07,0,0,0,.94-.78.94.94,0,0,0-.73-.95,1.79,1.79,0,0,0-.65-.05.89.89,0,0,0,0,1.76l.21,0" transform="translate(-1.1 -0.98)"/><path class="cls-1" d="M33.64,22.32a1.57,1.57,0,0,1-2.14,0,1.75,1.75,0,0,1-.42-2.1,1.64,1.64,0,0,1,2.06-.86,10.17,10.17,0,0,0-1,.26A1.34,1.34,0,0,0,31.2,21,1.4,1.4,0,0,0,32,22.3a1.67,1.67,0,0,0,1.12.1,3.25,3.25,0,0,0,.46-.17l.08.09" transform="translate(-1.1 -0.98)"/><path class="cls-1" d="M33.56,22.23c.19-.13.22-.49.57-.42l0,0a.8.8,0,0,1-.47.53l-.08-.09" transform="translate(-1.1 -0.98)"/><path class="cls-1" d="M53.78,26a2.53,2.53,0,0,1-.26.64,4.28,4.28,0,0,1-2.08,1.54,1.13,1.13,0,0,1-1.31-.38c-.4-.45-.77-.92-1.17-1.37-.15-.17-.21-.33-.08-.51a5.05,5.05,0,0,1,.49-.63,1.31,1.31,0,0,1,.43-.25,3.18,3.18,0,0,0,1.38-1.24.75.75,0,0,1,1.18-.27l.07,0A4.1,4.1,0,0,1,53.78,26m-.3,0a3.93,3.93,0,0,0-1.34-2.23l-.07,0c-.31-.19-.46-.2-.61.1a3.71,3.71,0,0,1-1.69,1.52,2.06,2.06,0,0,0-.56.46.37.37,0,0,0,0,.52c.41.45.79.91,1.21,1.35a.8.8,0,0,0,.9.2,3.92,3.92,0,0,0,1.9-1.37,2.17,2.17,0,0,0,.24-.51" transform="translate(-1.1 -0.98)"/><path class="cls-1" d="M64.13,16.27c.37-.22.63-.84,1.27-.35a2.13,2.13,0,0,0-.61.17,2,2,0,0,0-.44.48s-.06.1-.1.13-.21.12-.28.1a.4.4,0,0,1-.18-.25,1.68,1.68,0,0,1-.06-.4.28.28,0,0,0-.34-.27c-1.19.09-1.77.5-2,1.41-.1.48-.22,1-.3,1.44a.8.8,0,0,0,.55.9,4.47,4.47,0,0,0,2.5.27c.38,0,.75-.13,1.19-.21a1.23,1.23,0,0,1-.81.43,4.18,4.18,0,0,1-3-.2,1,1,0,0,1-.7-1.25,13.87,13.87,0,0,1,.47-1.9,1.43,1.43,0,0,1,1-.93,4.38,4.38,0,0,1,.71-.19c.76-.14.86-.08,1.15.62" transform="translate(-1.1 -0.98)"/><path class="cls-1" d="M59.64,22.06a10.35,10.35,0,0,1,1.43.16,12.58,12.58,0,0,0,3.18.2h.33s.1.07.1.1-.05.11-.08.12a2.14,2.14,0,0,1-.56.11,10,10,0,0,1-2.94-.22,4.62,4.62,0,0,0-.65-.06,1.13,1.13,0,0,1-.81-.4" transform="translate(-1.1 -0.98)"/><path class="cls-1" d="M61,21.68c-.39.15-.62.16-.83,0,.23-.23.44-.08.83,0" transform="translate(-1.1 -0.98)"/><path class="cls-1" d="M55.69,80c-.28-.13-.5-.25-.72-.34A1.58,1.58,0,0,0,52.75,81a.5.5,0,0,0,.38.63c.34.1.7.12,1,.19s1,.18,1.44.32a2.59,2.59,0,0,1,1.57,1.17,2.7,2.7,0,0,1-.41-.16,5.15,5.15,0,0,0-2.83-1,3.87,3.87,0,0,1-.89-.16.85.85,0,0,1-.7-1,1.88,1.88,0,0,1,2.54-1.71,4.16,4.16,0,0,1,.57.24c.15-.21.29-.44.46-.65a1.59,1.59,0,0,1,.92-.64,1.39,1.39,0,0,1,1.65,1.12,4,4,0,0,1,0,1.38c-.15.75-.41,1.48-.62,2.22a.94.94,0,0,1,0,.16c-.07.16-.16.31-.36.27s-.17-.25-.12-.4c.21-.71.45-1.42.64-2.13a4.78,4.78,0,0,0,.13-1.13,1.21,1.21,0,0,0-.18-.63.87.87,0,0,0-1.4-.24,2.81,2.81,0,0,0-.49.54,5.86,5.86,0,0,0-.36.64" transform="translate(-1.1 -0.98)"/><path class="cls-1" d="M43,11.56l1.66.16v.92a1.68,1.68,0,0,1-.35,1.07c-.24.32-.48.34-.73,0a1.46,1.46,0,0,1-.23-.34A3.93,3.93,0,0,1,43,11.56M44,13.65a1.57,1.57,0,0,0,.45-1.55.23.23,0,0,0-.17-.15c-.26,0-.59-.11-.79,0s-.07.5,0,.75a1.32,1.32,0,0,0,.52.93" transform="translate(-1.1 -0.98)"/><path class="cls-1" d="M47.5,10.45l1.48-1a2,2,0,0,1,.78,1.73,1.53,1.53,0,0,1-.11.47.55.55,0,0,1-.84.37,3.11,3.11,0,0,1-.56-.32,1.31,1.31,0,0,1-.24-.23l-.51-.52c.16-.18.25,0,.33,0,.26.2.49.45.76.62.55.34.83.18.84-.44a2.19,2.19,0,0,0-.09-.72c-.23-.76-.32-.78-1-.29a1,1,0,0,1-.88.33" transform="translate(-1.1 -0.98)"/><path class="cls-1" d="M74.76,6.63c0-1,.47-1.13,1.29-1.23A1.23,1.23,0,0,1,77.3,6.54a1.27,1.27,0,0,1-2.54.09m.34-.09a.93.93,0,0,0,1,.91.85.85,0,0,0,.79-.88,1,1,0,0,0-1.07-.81.7.7,0,0,0-.75.78" transform="translate(-1.1 -0.98)"/><path class="cls-1" d="M77.05,4.7a.58.58,0,0,1,.63.25,2.66,2.66,0,0,1,.6,1.42,1.81,1.81,0,0,1-.86,2c-.14-.16,0-.23.1-.31a2.23,2.23,0,0,0-.11-3c-.1-.11-.21-.21-.36-.35" transform="translate(-1.1 -0.98)"/><path class="cls-1" d="M73.32,6.34c.06-.27.08-.43.12-.59.09-.34.32-.56.33-.47a1.66,1.66,0,0,1,0,.54A2.37,2.37,0,0,0,74,7.41c.08.14.18.27.25.42s0,.11,0,.13A.16.16,0,0,1,74,8c-.09-.1-.22-.19-.26-.31-.17-.45-.31-.92-.44-1.3" transform="translate(-1.1 -0.98)"/><path class="cls-1" d="M76.13,6.27c.27.06.38.22.22.46a.41.41,0,0,1-.63.11.37.37,0,0,1-.14-.55c.14-.2.28-.2.57,0a.56.56,0,0,0-.23,0c-.06,0-.13.11-.12.17s.1.12.15.12a.25.25,0,0,0,.18-.12.65.65,0,0,0,0-.24" transform="translate(-1.1 -0.98)"/></svg>